<svg width="629" height="502" viewBox="0 0 629 502" fill="none" xmlns="http://www.w3.org/2000/svg">
<path d="M126.48 497.414L131.187 497.414L133.427 479.377L126.479 479.377L126.48 497.414Z" fill="#FFB8B8"/>
<path d="M140.266 501.755L125.47 501.756L125.469 496.077L134.549 496.077C136.065 496.077 137.519 496.675 138.591 497.74C139.663 498.805 140.266 500.249 140.266 501.755L140.266 501.755Z" fill="#2F2E41"/>
<path d="M109.583 497.414L114.291 497.414L116.531 479.377L109.582 479.377L109.583 497.414Z" fill="#FFB8B8"/>
<path d="M123.369 501.755L108.573 501.756L108.573 496.077L117.652 496.077C119.168 496.077 120.622 496.675 121.695 497.74C122.767 498.805 123.369 500.249 123.369 501.755L123.369 501.755Z" fill="#2F2E41"/>
<path d="M113.697 491.866L109.099 491.626C108.862 491.613 108.629 491.554 108.415 491.452C108.201 491.35 108.01 491.207 107.852 491.03C107.694 490.854 107.573 490.649 107.496 490.426C107.419 490.203 107.387 489.967 107.402 489.731L112.898 429.289L138.208 436.073L140.647 435.412L133.021 488.92C132.956 489.322 132.755 489.691 132.451 489.964C132.146 490.238 131.757 490.4 131.348 490.424L126.391 490.653C126.143 490.667 125.895 490.63 125.662 490.543C125.43 490.457 125.218 490.323 125.04 490.152C124.862 489.98 124.722 489.773 124.628 489.545C124.535 489.316 124.49 489.071 124.497 488.824L125.395 456.71C125.399 456.562 125.347 456.417 125.249 456.305C125.152 456.192 125.015 456.12 124.866 456.103C124.718 456.086 124.568 456.125 124.447 456.212C124.325 456.298 124.241 456.427 124.211 456.573L115.549 490.448C115.467 490.85 115.248 491.211 114.928 491.47C114.608 491.729 114.207 491.87 113.795 491.869C113.762 491.869 113.73 491.868 113.697 491.866Z" fill="#2F2E41"/>
<path d="M127.322 379.835C132.531 379.835 136.754 375.641 136.754 370.467C136.754 365.293 132.531 361.099 127.322 361.099C122.113 361.099 117.891 365.293 117.891 370.467C117.891 375.641 122.113 379.835 127.322 379.835Z" fill="#FFB8B8"/>
<path d="M111.622 397.99L112.659 420.214L113.034 428.3C113.049 428.652 113.169 428.991 113.379 429.275C113.59 429.559 113.88 429.774 114.214 429.892L138.536 438.643C138.732 438.716 138.94 438.752 139.15 438.75C139.389 438.752 139.627 438.705 139.848 438.613C140.069 438.521 140.269 438.385 140.436 438.215C140.603 438.045 140.734 437.842 140.821 437.621C140.907 437.399 140.948 437.162 140.941 436.924L139.944 396.964C139.878 393.685 138.663 390.532 136.508 388.048C134.353 385.564 131.393 383.904 128.138 383.356C127.903 383.32 127.663 383.284 127.424 383.253C125.406 383.004 123.357 383.197 121.422 383.82C119.487 384.442 117.713 385.477 116.225 386.854C114.683 388.262 113.472 389.989 112.677 391.914C111.881 393.838 111.521 395.912 111.622 397.99L111.622 397.99Z" fill="#CCCCCC"/>
<path d="M150.153 434.209C149.578 434.032 149.052 433.723 148.618 433.308C148.184 432.893 147.854 432.384 147.654 431.819C147.453 431.255 147.389 430.652 147.465 430.059C147.541 429.465 147.755 428.898 148.091 428.401L139.844 417.508L146.961 417.07L153.702 427.482C154.424 428.036 154.926 428.825 155.12 429.71C155.315 430.595 155.19 431.52 154.766 432.323C154.343 433.125 153.648 433.754 152.805 434.099C151.961 434.444 151.022 434.483 150.153 434.209H150.153Z" fill="#FFB8B8"/>
<path d="M144.352 426.43C144.133 426.342 143.935 426.211 143.767 426.046C143.6 425.882 143.467 425.685 143.376 425.469L130.951 396.064C130.707 395.488 130.58 394.87 130.576 394.246C130.573 393.621 130.694 393.002 130.931 392.424C131.169 391.845 131.519 391.319 131.961 390.876C132.404 390.432 132.93 390.079 133.51 389.837C134.09 389.596 134.712 389.47 135.341 389.467C135.969 389.464 136.593 389.584 137.175 389.821C137.757 390.057 138.286 390.406 138.732 390.845C139.179 391.285 139.534 391.808 139.777 392.384L152.202 421.79C152.386 422.226 152.388 422.716 152.208 423.154C152.028 423.591 151.681 423.94 151.242 424.124L145.726 426.423C145.509 426.514 145.275 426.562 145.04 426.563C144.804 426.564 144.57 426.519 144.352 426.43L144.352 426.43Z" fill="#CCCCCC"/>
<path d="M124.292 425.393L136.226 402.695C136.457 402.258 136.852 401.93 137.325 401.783C137.798 401.635 138.311 401.68 138.751 401.908L156.074 410.894C156.514 411.123 156.844 411.515 156.992 411.985C157.141 412.455 157.096 412.965 156.867 413.402L144.932 436.1C144.702 436.536 144.307 436.864 143.833 437.012C143.36 437.159 142.847 437.114 142.407 436.887L125.084 427.9C124.645 427.672 124.315 427.279 124.166 426.809C124.017 426.339 124.063 425.83 124.292 425.393Z" fill="#3F3D56"/>
<path d="M132.296 415.023C132.084 414.463 131.743 413.96 131.3 413.554C130.857 413.149 130.326 412.851 129.747 412.686C129.168 412.521 128.558 412.492 127.966 412.603C127.374 412.713 126.816 412.959 126.337 413.322L114.902 405.787L114.883 412.87L125.745 418.939C126.344 419.622 127.167 420.073 128.068 420.214C128.969 420.355 129.891 420.176 130.673 419.708C131.454 419.241 132.045 418.516 132.342 417.659C132.639 416.802 132.623 415.869 132.296 415.023Z" fill="#FFB8B8"/>
<path d="M117.838 416.615L108.493 409.262C107.482 408.925 106.568 408.349 105.831 407.584C105.093 406.819 104.553 405.887 104.258 404.869C103.963 403.852 103.92 402.778 104.135 401.74C104.349 400.702 104.814 399.732 105.489 398.912L113.974 387.866C114.564 387.15 115.393 386.669 116.31 386.511C117.228 386.353 118.172 386.527 118.97 387.003C119.768 387.479 120.367 388.225 120.658 389.104C120.948 389.982 120.911 390.935 120.552 391.789L113.838 402.697L123.704 407.346C123.934 407.454 124.138 407.609 124.302 407.801C124.467 407.993 124.588 408.218 124.659 408.46C124.73 408.702 124.748 408.957 124.712 409.206C124.677 409.456 124.588 409.696 124.453 409.909L120.47 416.169C120.335 416.381 120.157 416.562 119.948 416.7C119.738 416.839 119.502 416.932 119.254 416.975C119.244 416.976 119.234 416.978 119.224 416.979C118.98 417.016 118.731 417.002 118.493 416.94C118.255 416.877 118.032 416.766 117.838 416.615Z" fill="#CCCCCC"/>
<path d="M120.198 376.74C120.157 376.622 120.144 376.497 120.16 376.374C120.176 376.251 120.22 376.133 120.289 376.029C120.357 375.925 120.449 375.838 120.557 375.775C120.665 375.712 120.786 375.674 120.91 375.665C121.166 375.679 121.416 375.744 121.645 375.856C121.875 375.969 122.079 376.126 122.245 376.319C122.587 376.71 122.984 377.049 123.425 377.325C123.881 377.553 124.5 377.521 124.76 377.085C125.004 376.676 124.837 376.129 124.689 375.654C124.312 374.445 124.102 373.191 124.063 371.927C124.02 370.516 124.221 369.043 125.007 367.942C126.023 366.521 127.838 365.982 129.556 366.021C131.274 366.06 132.964 366.587 134.666 366.92C135.254 367.035 135.944 367.094 136.337 366.641C136.755 366.16 136.601 365.382 136.424 364.733C135.963 363.048 135.473 361.306 134.402 359.945C133.243 358.531 131.588 357.606 129.77 357.355C128.025 357.14 126.253 357.34 124.601 357.938C121.909 358.781 119.54 360.42 117.811 362.637C116.028 364.994 115.258 367.956 115.669 370.875C116.07 373.418 117.426 375.716 119.465 377.304L120.198 376.74Z" fill="#2F2E41"/>
<path d="M16.3557 243.819C9.47353 243.819 3.87488 249.391 3.87488 256.24V275.681C3.87488 282.53 9.47353 288.102 16.3557 288.102H35.8908C42.7729 288.102 48.3716 282.53 48.3716 275.681V256.24C48.3716 249.391 42.7729 243.819 35.8908 243.819H16.3557Z" fill="#30EADA"/>
<path d="M80.295 298.149C73.4129 298.149 67.8142 303.721 67.8142 310.57V330.011C67.8142 336.86 73.4129 342.432 80.295 342.432H99.8301C106.712 342.432 112.311 336.86 112.311 330.011V310.57C112.311 303.721 106.712 298.149 99.8301 298.149H80.295Z" fill="#30EADA"/>
<path d="M22.9995 271.278C18.8645 271.278 15.5 267.93 15.5 263.815C15.5 259.7 18.8645 256.352 22.9995 256.352C27.1345 256.352 30.499 259.7 30.499 263.815C30.499 267.93 27.1345 271.278 22.9995 271.278ZM22.9995 259.337C20.5182 259.337 18.4998 261.346 18.4998 263.815C18.4998 266.284 20.5182 268.293 22.9995 268.293C25.4808 268.293 27.4992 266.284 27.4992 263.815C27.4992 261.346 25.4808 259.337 22.9995 259.337Z" fill="white"/>
<path d="M34.5368 276.35C34.1692 276.35 33.8008 276.216 33.5115 275.946L26.4727 269.381C25.8677 268.818 25.837 267.873 26.4038 267.272C26.9692 266.669 27.9184 266.639 28.5233 267.203L35.5622 273.768C36.1671 274.332 36.1979 275.276 35.631 275.877C35.3359 276.192 34.9367 276.35 34.5368 276.35Z" fill="white"/>
<path d="M52.3346 493.83L48.366 493.797L46.6093 478.208L52.4665 478.257L52.3346 493.83Z" fill="#A0616A"/>
<path d="M39.6229 500.111C39.6143 501.083 40.4017 501.883 41.382 501.892L49.2725 501.958L50.6538 499.171L51.1612 501.972L54.1384 501.999L53.3866 492.01L52.3508 491.941L48.1258 491.651L46.7627 491.561L46.7388 494.387L40.4004 498.665C39.9181 498.991 39.6277 499.531 39.6229 500.111H39.6229Z" fill="#2F2E41"/>
<path d="M72.5242 493.83L68.5556 493.797L66.7988 478.208L72.6561 478.257L72.5242 493.83Z" fill="#A0616A"/>
<path d="M59.8126 500.111C59.804 501.083 60.5914 501.883 61.5717 501.892L69.4622 501.958L70.8436 499.171L71.3509 501.972L74.3281 501.999L73.5763 492.01L72.5405 491.941L68.3155 491.651L66.9524 491.561L66.9285 494.387L60.59 498.665C60.1078 498.991 59.8174 499.531 59.8126 500.111Z" fill="#2F2E41"/>
<path d="M36.762 367.795L52.8486 368.3L68.0886 371.671C68.0886 371.671 66.5646 373.525 71.6446 378.58C71.6446 378.58 78.4179 390.376 73.6766 401.835L71.6446 447.672C71.6446 447.672 77.5691 479.984 73.0425 490.268L67.0597 490.64L56.9362 448.045L52.002 402.172L49.6313 447.335C49.6313 447.335 58.7006 478.334 52.9737 490.64L46.4941 490.268L35.4073 447.335C35.4073 447.335 30.666 397.791 31.3433 388.354C32.0207 378.917 36.762 367.795 36.762 367.795H36.762Z" fill="#212121"/>
<path d="M90.7823 295.366C88.5832 295.933 87.2621 298.166 87.8315 300.355C88.0924 301.358 88.7073 302.173 89.506 302.712L89.5058 302.718L89.1938 310.238L94.9763 312.901L95.4379 301.329L95.3976 301.33C95.899 300.441 96.0722 299.367 95.7952 298.303C95.2258 296.114 92.9814 294.799 90.7823 295.366V295.366Z" fill="#A0616A"/>
<path d="M58.4642 322.204C57.2494 321.005 56.5447 319.381 56.5183 317.614C56.4829 315.244 57.6763 313.093 59.7106 311.86C62.0532 310.44 64.9827 310.584 67.1739 312.226L85.3318 325.832L88.5673 306.231L95.5137 308.457L93.8563 333.979C93.7402 335.764 92.7265 337.337 91.1441 338.186C89.5617 339.035 87.6845 339.014 86.122 338.129L59.8809 323.272C59.3538 322.973 58.8791 322.613 58.4642 322.204V322.204Z" fill="#3F3D56"/>
<path d="M30.7781 284.403C31.9389 286.346 31.2969 288.858 29.3443 290.013C28.4496 290.542 27.4358 290.691 26.4873 290.514L26.4835 290.518L21.385 296.077L15.3945 293.916L23.2534 285.375L23.2811 285.404C23.554 284.422 24.1907 283.538 25.1407 282.976C27.0934 281.821 29.6173 282.459 30.7781 284.403Z" fill="#A0616A"/>
<path d="M32.98 325.871L3.83381 318.036C2.0984 317.569 0.750241 316.269 0.227153 314.557C-0.295935 312.846 0.0967957 311.019 1.27735 309.67L18.1564 290.384L24.6637 293.671L13.095 309.857L35.6154 312.917C38.3329 313.286 40.5149 315.237 41.174 317.887C41.7464 320.188 41.0721 322.551 39.3703 324.21C38.1017 325.446 36.4519 326.106 34.7415 326.105C34.1573 326.105 33.5655 326.028 32.98 325.871H32.98Z" fill="#3F3D56"/>
<path d="M74.5343 374.539L33.7768 376.399C32.6574 374.708 32.9606 372.164 34.5282 368.979C40.4472 356.952 35.9519 334.199 32.928 322.352C32.0795 319.028 34.3572 315.723 37.7863 315.382L41.6292 315L45.1814 304.208H57.6224L62.7837 310.076L71.5429 315.372C69.9486 331.715 63.1552 354.793 72.8332 366.367C74.9499 368.898 75.5501 371.636 74.5343 374.539Z" fill="#3F3D56"/>
<path d="M49.8191 304.457C56.5116 304.457 61.937 299.058 61.937 292.397C61.937 285.737 56.5116 280.338 49.8191 280.338C43.1265 280.338 37.7012 285.737 37.7012 292.397C37.7012 299.058 43.1265 304.457 49.8191 304.457Z" fill="#A0616A"/>
<path d="M63.5292 284.678C65.2151 278.56 46.8397 273.315 43.2689 278.241C42.7723 277.541 40.9373 277.115 40.0954 277.33C39.2535 277.545 38.5454 278.082 37.8545 278.602C36.9046 279.328 35.9202 280.08 35.3374 281.124C34.7501 282.164 34.6595 283.582 35.4496 284.484C36.0757 285.202 37.1758 289.015 38.117 289.204C38.7733 289.337 39.326 289.445 39.8009 289.522C40.2241 288.908 41.3031 288.136 41.2254 287.392C41.8644 287.813 41.6309 288.554 41.5021 289.311C41.0731 291.833 31.4077 311.35 36.9435 305.599C37.4919 305.921 38.1697 306.222 38.9512 306.497C40.2767 304.508 41.3648 302.162 42.0815 299.708L42.0866 299.753C42.3334 301.886 43.8991 303.635 45.9706 304.232C54.2802 306.628 61.0018 303.113 63.3141 296.773C62.4676 295.063 62.0988 295.249 62.1747 295.198C63.2313 294.489 64.6836 294.953 65.1377 296.137C65.2716 296.487 65.3933 296.785 65.4988 297.009C66.7034 292.721 68.1361 293.34 63.5292 284.678H63.5292Z" fill="#212121"/>
<path d="M57.7983 280.239L56.9495 275.921C56.8781 275.558 56.8104 275.164 56.9749 274.832C57.1862 274.406 57.7295 274.229 58.2021 274.297C58.6748 274.365 59.0284 274.795 59.4986 274.878C61.1337 275.165 63.295 273.558 63.8809 277.624C64.1252 279.319 66.8434 279.499 67.7512 280.953C68.659 282.408 68.7705 284.509 67.5315 285.697C66.5421 286.647 64.953 286.756 63.6679 286.271C62.3828 285.786 61.3514 284.807 60.4505 283.774C59.5495 282.741 58.7337 281.623 57.6945 280.728" fill="#2F2E41"/>
<path d="M64.1784 286.808C60.8625 286.347 58.6024 285.147 57.4607 283.241C55.9665 280.746 56.9674 278 57.0107 277.884L57.7116 278.143C57.7023 278.168 56.7943 280.683 58.1071 282.866C59.1282 284.565 61.2058 285.643 64.2817 286.071L64.1784 286.808Z" fill="#191919"/>
<path d="M535.606 498.199C559.034 490.419 584.215 483.808 602.973 466.996C619.736 451.973 631.052 429.032 624.108 406.502C617.178 384.018 596.421 369.025 574.99 361.569C562.835 357.34 550.118 354.993 537.406 353.15C523.588 351.146 509.708 349.505 495.835 347.925C439.662 341.529 383.277 337.621 326.681 336.203C298.754 335.502 270.833 335.519 242.903 335.923C217.959 336.283 191.688 336.274 168.548 325.72C150.554 317.512 134.222 302.58 129.208 282.957C123.42 260.306 134.096 237.238 149.41 220.833C157.482 212.186 166.916 204.908 176.648 198.216C187.206 190.956 198.133 184.21 209.296 177.913C231.281 165.517 254.267 154.967 278.013 146.373C289.728 142.133 301.616 138.474 313.608 135.099C323.734 132.249 333.891 129.394 343.677 125.511C362.595 118.005 380.589 105.289 385.399 84.4433C389.958 64.6864 382.272 43.2386 368.796 28.5616C353.205 11.5813 329.698 4.13762 307.161 2.93326C281.86 1.58116 257.141 7.88543 233.36 15.8864C207.996 24.42 183.179 34.2321 157.279 41.1443C131.595 47.9919 105.415 52.8369 78.9754 55.6353C66.0324 57.0074 52.6982 58.5567 39.6782 57.5063C28.7662 56.6259 17.91 53.431 9.86807 45.721C2.97251 39.1101 -1.13524 30.0245 0.276988 20.4364C0.5335 18.6949 3.19075 19.4353 2.93581 21.1661C1.21672 32.8375 9.18561 43.5924 19.0055 49.1015C30.3547 55.4686 44.165 55.4773 56.8005 54.7491C84.1978 53.1017 111.41 49.1854 138.154 43.0407C164.433 37.065 189.774 28.5224 215.086 19.397C239.126 10.7302 263.704 2.2714 289.386 0.394209C311.671 -1.23462 335.113 1.99755 354.527 13.5919C371.589 23.7817 384.135 40.775 388.133 60.2753C392.04 79.3306 386.629 98.51 372.141 111.807C357.14 125.575 336.571 131.462 317.402 136.883C293.09 143.759 269.299 151.796 246.271 162.232C222.929 172.78 200.543 185.31 179.361 199.683C158.914 213.593 138.736 231.096 132.269 255.913C129.257 267.473 129.813 279.733 134.853 290.652C139.335 300.36 146.716 308.527 155.314 314.826C175.829 329.855 201.685 332.94 226.465 333.247C254.297 333.592 282.129 332.657 309.97 333.112C366.708 334.039 423.331 337.477 479.837 343.427C493.996 344.919 508.137 346.568 522.26 348.374C534.964 350 547.71 351.614 560.199 354.5C582.407 359.632 604.016 369.499 617.819 388.245C623.945 396.37 627.74 405.999 628.8 416.104C629.766 426.649 627.173 437.213 622.384 446.594C611.785 467.356 591.931 480.562 570.847 489.239C559.554 493.886 548.187 498.885 536.15 500.902C534.162 501.235 533.76 498.812 535.606 498.199Z" fill="#BCFFF9"/>
<path d="M283.757 336.686C295.94 336.686 305.816 326.854 305.816 314.725C305.816 302.597 295.94 292.765 283.757 292.765C271.575 292.765 261.699 302.597 261.699 314.725C261.699 326.854 271.575 336.686 283.757 336.686Z" fill="#F2F2F2"/>
<path d="M441.842 382.437C454.025 382.437 463.901 372.605 463.901 360.476C463.901 348.348 454.025 338.516 441.842 338.516C429.66 338.516 419.784 348.348 419.784 360.476C419.784 372.605 429.66 382.437 441.842 382.437Z" fill="#F2F2F2"/>
<path d="M297.612 20.0872C231.536 20.5518 177.434 74.0101 176.495 139.789C176.487 140.396 176.483 144.666 176.483 150.251C176.484 158.441 179.751 166.294 185.567 172.085C191.383 177.876 199.272 181.129 207.497 181.13H207.497C211.575 181.129 215.612 180.329 219.379 178.774C223.145 177.219 226.567 174.94 229.449 172.068C232.33 169.196 234.615 165.787 236.173 162.035C237.731 158.284 238.531 154.264 238.527 150.204C238.524 146.405 238.522 143.775 238.522 143.614C238.52 133.448 241.176 123.456 246.229 114.622C251.282 105.788 258.558 98.4158 267.34 93.2303C276.123 88.0449 286.111 85.2249 296.32 85.0479C306.53 84.8708 316.61 87.3429 325.569 92.2207C334.528 97.0986 342.057 104.214 347.416 112.868C352.775 121.521 355.779 131.415 356.132 141.575C356.486 151.735 354.176 161.811 349.432 170.813C344.687 179.815 337.67 187.432 329.072 192.915L329.083 192.928C329.083 192.928 284.94 221.221 271.482 260.033L271.493 260.036C269.127 267.987 267.928 276.237 267.933 284.529C267.933 287.938 268.135 317.765 268.524 341.973C268.66 350.326 272.089 358.291 278.071 364.149C284.053 370.007 292.108 373.29 300.499 373.288H300.499C304.716 373.288 308.89 372.457 312.783 370.845C316.676 369.232 320.21 366.869 323.182 363.892C326.154 360.915 328.506 357.382 330.101 353.496C331.696 349.611 332.504 345.449 332.478 341.252C332.343 319.081 332.27 293.266 332.27 291.392C332.27 267.56 355.363 243.815 374.331 228.33C396.175 210.499 411.893 186.199 418.207 158.788C419.604 153.145 420.374 147.366 420.504 141.555C420.504 125.529 417.318 109.662 411.132 94.8674C404.945 80.0728 395.879 66.6432 384.455 55.3523C373.032 44.0615 359.478 35.1326 344.573 29.0802C329.668 23.0278 313.708 19.9714 297.612 20.0872Z" fill="#30EADA"/>
<path d="M483.257 207.663C498.485 207.663 510.83 195.373 510.83 180.212C510.83 165.051 498.485 152.761 483.257 152.761C468.029 152.761 455.684 165.051 455.684 180.212C455.684 195.373 468.029 207.663 483.257 207.663Z" fill="#212121"/>
<path d="M432.301 490.529H421.034L415.673 447.259H432.304L432.301 490.529Z" fill="#A0616A"/>
<path d="M412.984 487.325H434.715V500.947H399.302C399.302 499.158 399.656 497.387 400.343 495.734C401.031 494.082 402.039 492.58 403.309 491.315C404.58 490.05 406.088 489.047 407.748 488.362C409.408 487.678 411.187 487.325 412.984 487.325Z" fill="#3F3D56"/>
<path d="M519.617 490.529H508.35L502.988 447.259H519.62L519.617 490.529Z" fill="#A0616A"/>
<path d="M499.41 487.665H521.141V501.287H485.728C485.728 499.498 486.082 497.727 486.769 496.074C487.457 494.421 488.465 492.92 489.735 491.655C491.006 490.39 492.514 489.387 494.174 488.702C495.834 488.017 497.613 487.665 499.41 487.665Z" fill="#3F3D56"/>
<path d="M479.065 207.823C491.533 207.823 501.64 197.761 501.64 185.349C501.64 172.937 491.533 162.875 479.065 162.875C466.598 162.875 456.491 172.937 456.491 185.349C456.491 197.761 466.598 207.823 479.065 207.823Z" fill="#A0616A"/>
<path d="M492.518 280.327L502.619 257.223C505.072 251.802 505.775 245.758 504.631 239.923C503.487 234.088 500.552 228.751 496.232 224.647C495.344 223.774 494.402 222.958 493.41 222.204C488.426 218.323 482.284 216.207 475.956 216.192C471.702 216.209 467.501 217.139 463.64 218.919C463.309 219.066 462.988 219.221 462.657 219.377C462.023 219.679 461.398 220.008 460.791 220.347C456.834 222.608 453.467 225.764 450.96 229.56C448.454 233.356 446.878 237.685 446.361 242.198L441.903 279.385C440.782 282.304 400.783 387.716 414.772 468.193C414.921 469.053 415.342 469.842 415.973 470.446C416.605 471.05 417.414 471.438 418.283 471.551L432.465 473.473C433.5 473.614 434.551 473.359 435.405 472.76C436.26 472.16 436.854 471.261 437.069 470.243L460.865 357.318C461.013 356.617 461.393 355.985 461.945 355.524C462.496 355.063 463.187 354.799 463.907 354.774C464.626 354.75 465.334 354.967 465.915 355.39C466.497 355.813 466.919 356.418 467.114 357.108L500.735 475.861C500.975 476.724 501.492 477.485 502.207 478.027C502.923 478.569 503.797 478.863 504.696 478.862C504.965 478.861 505.232 478.836 505.496 478.789L522.821 475.468C523.828 475.28 524.729 474.725 525.346 473.911C525.963 473.097 526.253 472.082 526.158 471.066C523.612 442.801 510.082 301.217 492.518 280.327Z" fill="#212121"/>
<path d="M391.336 204.053C391.179 205.389 391.318 206.743 391.744 208.019C392.17 209.296 392.872 210.464 393.8 211.442C394.729 212.419 395.861 213.182 397.117 213.676C398.374 214.171 399.724 214.385 401.073 214.304L413.691 244.493L423.236 230.407L409.79 203.898C409.503 201.652 408.398 199.588 406.685 198.098C404.971 196.608 402.769 195.796 400.494 195.815C398.219 195.834 396.03 196.683 394.343 198.201C392.655 199.719 391.585 201.801 391.335 204.053L391.336 204.053Z" fill="#A0616A"/>
<path d="M477.809 310.724C479.151 310.564 480.441 310.114 481.589 309.404C482.737 308.694 483.714 307.743 484.453 306.616C485.191 305.49 485.672 304.216 485.863 302.884C486.053 301.552 485.948 300.195 485.554 298.908L512.103 279.657L496.119 273.698L473.359 292.893C471.231 293.694 469.473 295.245 468.417 297.251C467.361 299.257 467.08 301.579 467.629 303.777C468.177 305.975 469.517 307.896 471.393 309.176C473.27 310.457 475.553 311.007 477.809 310.724Z" fill="#A0616A"/>
<path d="M434.535 264.619C433.518 264.618 432.502 264.518 431.504 264.321C429.089 263.864 426.824 262.822 424.909 261.287C422.994 259.753 421.488 257.773 420.523 255.522L402.845 234.062C402.471 233.608 402.199 233.08 402.047 232.513C401.895 231.946 401.866 231.354 401.963 230.775C402.059 230.196 402.279 229.644 402.607 229.157C402.936 228.67 403.365 228.258 403.866 227.949L416.443 220.198C416.907 219.912 417.424 219.72 417.963 219.633C418.503 219.547 419.054 219.568 419.585 219.695C420.116 219.821 420.616 220.052 421.058 220.372C421.499 220.692 421.872 221.097 422.156 221.561L434.615 241.998L458.476 224.441C460.376 223.45 462.571 223.172 464.66 223.658C466.749 224.144 468.592 225.362 469.853 227.09C471.114 228.818 471.709 230.939 471.529 233.067C471.348 235.195 470.405 237.188 468.871 238.681L445.056 260.309C442.257 263.071 438.476 264.62 434.535 264.619Z" fill="#212121"/>
<path d="M499.005 296.896C498.973 296.896 498.94 296.896 498.908 296.895C498.328 296.881 497.757 296.746 497.233 296.499C496.709 296.251 496.243 295.897 495.865 295.458L484.683 282.471C484.302 282.029 484.02 281.511 483.855 280.952C483.69 280.393 483.646 279.806 483.726 279.229C483.806 278.651 484.008 278.098 484.319 277.604C484.629 277.111 485.042 276.688 485.529 276.365L506.467 262.468L487.499 239.764C486.395 237.932 485.99 235.767 486.358 233.663C486.726 231.559 487.842 229.657 489.502 228.304C491.162 226.952 493.256 226.239 495.4 226.296C497.544 226.353 499.596 227.177 501.181 228.616L524.236 251.046C526.05 252.696 527.435 254.76 528.272 257.061C529.109 259.361 529.373 261.83 529.04 264.254C528.708 266.678 527.79 268.986 526.365 270.979C524.94 272.972 523.05 274.592 520.858 275.698L502.015 295.603C501.628 296.011 501.161 296.336 500.644 296.559C500.126 296.781 499.569 296.896 499.005 296.896Z" fill="#212121"/>
<path d="M473.324 249.039C473.144 249.039 472.965 249.028 472.787 249.005C472.008 248.911 471.273 248.596 470.669 248.099C470.064 247.601 469.616 246.941 469.377 246.197L460.974 220.549C460.763 219.901 460.796 219.199 461.065 218.572C461.334 217.946 461.823 217.437 462.439 217.141L462.712 217.013C462.959 216.896 463.204 216.78 463.454 216.669C467.372 214.86 471.637 213.917 475.956 213.903C481.563 213.914 487.045 215.554 491.729 218.622C492.357 219.038 492.796 219.683 492.951 220.418C493.106 221.153 492.965 221.919 492.558 222.551L476.795 247.136C476.425 247.72 475.913 248.201 475.306 248.534C474.699 248.867 474.017 249.041 473.324 249.039Z" fill="#CCCCCC"/>
<path d="M504.99 167.957C509.973 167.957 514.013 163.936 514.013 158.975C514.013 154.014 509.973 149.992 504.99 149.992C500.007 149.992 495.968 154.014 495.968 158.975C495.968 163.936 500.007 167.957 504.99 167.957Z" fill="#212121"/>
<path d="M474.059 149.101C467.721 149.101 461.643 151.607 457.161 156.069C452.68 160.53 450.162 166.582 450.162 172.891V182.957H462.597L468.544 172.892L470.329 182.957H508.065L497.955 172.891C497.955 166.582 495.438 160.53 490.956 156.069C486.475 151.607 480.397 149.101 474.059 149.101Z" fill="#212121"/>
<path d="M509.634 152.821C510.632 149.715 512.697 147.058 515.468 145.318C518.238 143.579 521.536 142.867 524.781 143.308C530.531 144.265 535.077 148.867 537.786 154.006C540.495 159.145 541.746 164.897 543.567 170.411C545.388 175.924 547.97 181.468 552.567 185.037C557.165 188.606 564.219 189.574 568.734 185.902C568.218 189.729 566.507 193.297 563.843 196.102C561.179 198.907 557.696 200.807 553.888 201.534C550.079 202.26 546.138 201.776 542.621 200.15C539.103 198.524 536.189 195.839 534.289 192.473C531.906 188.254 531.291 183.308 530.585 178.518C529.878 173.729 528.961 168.773 526.116 164.847C523.272 160.921 517.948 158.357 513.429 160.145L509.634 152.821Z" fill="#212121"/>
<path opacity="0.7" d="M216.249 166.525C208.024 166.524 200.136 163.271 194.319 157.48C188.503 151.689 185.236 143.836 185.235 135.647C185.235 130.061 185.239 125.791 185.247 125.184C185.509 106.054 190.348 87.2611 199.364 70.3652C184.551 90.5536 176.406 114.826 176.056 139.824C176.048 140.432 176.044 144.702 176.044 150.287C176.045 158.476 179.312 166.33 185.128 172.121C190.945 177.911 198.833 181.165 207.058 181.166C213.817 181.163 220.391 178.964 225.78 174.903C231.17 170.842 235.08 165.14 236.918 158.665C231.239 163.735 223.877 166.535 216.249 166.525Z" fill="#078378"/>
<path opacity="0.7" d="M299.711 85.1513C309.22 85.6034 318.477 88.3465 326.687 93.1449C334.897 97.9434 341.814 104.654 346.845 112.7C351.876 120.746 354.87 129.888 355.571 139.34C356.272 148.793 354.657 158.273 350.867 166.967C356.35 160.557 360.379 153.045 362.681 144.944C364.983 136.843 365.504 128.343 364.207 120.024C362.91 111.704 359.827 103.761 355.167 96.7351C350.507 89.7095 344.381 83.7668 337.205 79.3122C330.029 74.8575 321.973 71.9957 313.586 70.9217C305.198 69.8478 296.677 70.5871 288.603 73.0891C280.528 75.5911 273.091 79.797 266.797 85.4201C260.503 91.0432 255.501 97.9513 252.132 105.673C257.955 98.854 265.273 93.4571 273.522 89.899C281.772 86.3408 290.731 84.7165 299.711 85.1513Z" fill="#078378"/>
<path opacity="0.7" d="M309.255 358.683C300.864 358.685 292.809 355.403 286.827 349.544C280.845 343.686 277.416 335.721 277.28 327.369C276.89 303.16 276.689 273.334 276.689 269.925C276.684 261.632 277.883 253.382 280.249 245.431L280.238 245.428C281.635 241.437 283.323 237.553 285.288 233.807C279.257 241.808 274.457 250.659 271.047 260.069L271.058 260.072C268.692 268.023 267.493 276.273 267.498 284.565C267.498 287.974 267.699 317.801 268.089 342.009C268.225 350.362 271.654 358.327 277.636 364.185C283.618 370.043 291.673 373.326 300.064 373.324C306.983 373.323 313.714 371.088 319.249 366.956C324.784 362.823 328.824 357.015 330.764 350.404C324.884 355.741 317.212 358.694 309.255 358.683Z" fill="#078378"/>
<path d="M302.144 501.391C325.494 501.391 344.422 482.546 344.422 459.3C344.422 436.053 325.494 417.208 302.144 417.208C278.794 417.208 259.865 436.053 259.865 459.3C259.865 482.546 278.794 501.391 302.144 501.391Z" fill="#30EADA"/>
<path d="M517.61 501.572H0.728561C0.535141 501.572 0.349838 501.511 0.213267 501.402C0.0766966 501.293 0 501.146 0 500.993C0 500.839 0.0766966 500.692 0.213267 500.583C0.349838 500.475 0.535141 500.414 0.728561 500.413H517.61C517.804 500.413 517.989 500.474 518.126 500.583C518.263 500.692 518.341 500.839 518.341 500.993C518.341 501.146 518.263 501.294 518.126 501.403C517.989 501.511 517.804 501.572 517.61 501.572Z" fill="#30EADA"/>
</svg>
