<svg width="24" height="24" viewBox="0 0 24 24" fill="none" xmlns="http://www.w3.org/2000/svg">
<path fill-rule="evenodd" clip-rule="evenodd" d="M7 2.75C4.65279 2.75 2.75 4.65279 2.75 7V17C2.75 19.3472 4.65279 21.25 7 21.25H17C19.3472 21.25 21.25 19.3472 21.25 17V7C21.25 4.65279 19.3472 2.75 17 2.75H7ZM1.25 7C1.25 3.82436 3.82436 1.25 7 1.25H17C20.1756 1.25 22.75 3.82436 22.75 7V17C22.75 20.1756 20.1756 22.75 17 22.75H7C3.82436 22.75 1.25 20.1756 1.25 17V7Z" fill="#212121"/>
<path fill-rule="evenodd" clip-rule="evenodd" d="M12.52 8.74219C11.8438 8.64192 11.1532 8.75742 10.5464 9.07226C9.93965 9.3871 9.4476 9.88526 9.14027 10.4959C8.83293 11.1065 8.72595 11.7985 8.83456 12.4734C8.94316 13.1483 9.26181 13.7718 9.74518 14.2551C10.2286 14.7385 10.852 15.0572 11.527 15.1658C12.2019 15.2744 12.8938 15.1674 13.5044 14.86C14.1151 14.5527 14.6132 14.0607 14.9281 13.4539C15.2429 12.8471 15.3584 12.1565 15.2581 11.4803C15.1558 10.7906 14.8344 10.152 14.3414 9.65894C13.8483 9.16588 13.2098 8.84447 12.52 8.74219ZM9.85557 7.74083C10.7424 7.28067 11.7517 7.11186 12.74 7.25841C13.7481 7.4079 14.6814 7.87765 15.402 8.59828C16.1227 9.3189 16.5924 10.2522 16.7419 11.2603C16.8885 12.2486 16.7196 13.2579 16.2595 14.1447C15.7993 15.0316 15.0713 15.7507 14.1788 16.1999C13.2864 16.6491 12.2751 16.8054 11.2886 16.6467C10.3022 16.488 9.39099 16.0223 8.68452 15.3158C7.97805 14.6093 7.51233 13.6981 7.35361 12.7117C7.19488 11.7253 7.35123 10.7139 7.80041 9.82148C8.2496 8.92905 8.96875 8.20098 9.85557 7.74083Z" fill="#212121"/>
<path fill-rule="evenodd" clip-rule="evenodd" d="M16.75 6.5C16.75 6.08579 17.0858 5.75 17.5 5.75H17.51C17.9242 5.75 18.26 6.08579 18.26 6.5C18.26 6.91421 17.9242 7.25 17.51 7.25H17.5C17.0858 7.25 16.75 6.91421 16.75 6.5Z" fill="#212121"/>
</svg>
