<svg width="282" height="180" viewBox="0 0 282 180" fill="none" xmlns="http://www.w3.org/2000/svg">
<g clip-path="url(#clip0_564_1208)">
<g opacity="0.2">
<path d="M237.721 155.561C235.779 156.741 233.798 157.884 231.779 158.989C231.465 159.16 231.152 159.331 230.838 159.507C229.321 160.328 227.779 161.126 226.214 161.902C226.226 161.777 226.241 161.653 226.26 161.529C226.439 160.241 226.837 158.995 227.437 157.844C227.718 157.293 228.054 156.772 228.439 156.289C229.967 154.364 232.09 153.288 234.258 153.602C235.609 153.811 236.84 154.507 237.721 155.561V155.561Z" fill="#22CCBD"/>
<path d="M241.282 152.614C241.244 152.891 241.195 153.163 241.136 153.433C240.014 154.16 238.876 154.869 237.721 155.56C235.779 156.74 233.798 157.883 231.779 158.989C231.465 159.16 231.152 159.331 230.838 159.507C230.461 159.228 230.117 158.907 229.811 158.551C229.236 157.881 228.775 157.12 228.446 156.299C227.76 154.506 227.541 152.566 227.811 150.663C228.081 148.761 228.83 146.96 229.988 145.433C231.53 143.508 233.639 142.433 235.807 142.746C237.976 143.06 239.713 144.695 240.643 146.975C241.349 148.764 241.57 150.711 241.282 152.614V152.614Z" fill="#22CCBD"/>
<path d="M242.84 141.758C243.54 136.848 241.092 132.43 237.373 131.891C233.654 131.352 230.071 134.895 229.372 139.805C228.672 144.715 231.119 149.132 234.839 149.672C238.558 150.211 242.14 146.668 242.84 141.758Z" fill="#22CCBD"/>
<path d="M281.663 50.9584C281.002 55.6548 279.336 60.15 276.782 64.1328L257.667 61.2149L274.942 66.7112C274.006 67.9027 272.991 69.0282 271.903 70.0799C275.557 76.4617 276.978 83.8968 275.939 91.1914C274.9 98.4859 271.461 105.217 266.173 110.303C269.264 115.681 270.771 121.837 270.518 128.048C262.391 137.587 252.477 146.144 241.144 153.444C240.017 154.164 238.876 154.87 237.721 155.561C235.779 156.741 233.798 157.883 231.779 158.989C231.113 158.859 230.458 158.712 229.811 158.541C229.006 158.336 228.218 158.098 227.444 157.833C222.145 156.01 217.402 152.84 213.671 148.629C209.94 144.418 207.348 139.309 206.144 133.794C204.94 128.28 205.166 122.545 206.799 117.143C208.432 111.742 211.417 106.856 215.466 102.956C215.138 102.385 214.827 101.803 214.534 101.212C214.446 101.041 214.364 100.87 214.277 100.694C211.903 95.7011 210.824 90.1819 211.142 84.6537L211.181 84.081C211.204 83.7726 211.232 83.4616 211.263 83.1533C211.309 82.7179 211.363 82.28 211.425 81.842V81.8006C211.928 78.2661 213.002 74.8389 214.606 71.6555L237.911 83.4927L216.661 68.1312C217.972 66.1726 219.488 64.362 221.183 62.7309C218.967 58.8245 217.571 54.5009 217.08 50.0278C216.589 45.5548 217.014 41.0277 218.328 36.7271C219.643 32.4265 221.82 28.444 224.723 25.0265C227.626 21.6091 231.194 18.8294 235.206 16.8597C239.218 14.8901 243.589 13.7725 248.046 13.5762C252.504 13.3799 256.954 14.1091 261.121 15.7185C265.288 17.328 269.083 19.7834 272.271 22.9327C275.458 26.0819 277.97 29.8579 279.652 34.0266L253.479 48.1468L281.062 38.437C282.06 42.5329 282.264 46.7845 281.663 50.9584Z" fill="#30EADA"/>
</g>
<g opacity="0.2">
<path d="M81.9363 170.104C80.8572 169.727 79.7858 169.34 78.7222 168.943C76.2454 168.024 73.8072 167.052 71.4075 166.028C71.894 165.63 72.4463 165.321 73.0389 165.116C75.1791 164.375 77.53 165.082 79.4441 166.787C80.4773 167.722 81.3232 168.848 81.9363 170.104V170.104Z" fill="#22CCBD"/>
<path d="M79.4441 166.787C79.2986 167.535 79.0558 168.26 78.7222 168.943C76.2454 168.024 73.8072 167.052 71.4075 166.028C69.3195 165.142 67.2641 164.216 65.2412 163.252C65.1528 162.634 65.1133 162.009 65.123 161.384C65.1317 160.733 65.2005 160.084 65.3286 159.446C65.8424 156.898 67.2966 154.869 69.4394 154.128C71.5822 153.387 73.9305 154.095 75.8446 155.802C76.3081 156.217 76.7329 156.673 77.1138 157.165C77.9575 158.261 78.6076 159.495 79.0356 160.814C79.6843 162.735 79.8251 164.794 79.4441 166.787V166.787Z" fill="#22CCBD"/>
<path d="M71.6011 161.162C75.2975 159.983 77.0269 154.985 75.4639 149.997C73.9009 145.01 69.6373 141.921 65.9409 143.1C62.2446 144.278 60.5151 149.277 62.0781 154.264C63.6411 159.252 67.9047 162.34 71.6011 161.162Z" fill="#22CCBD"/>
<path d="M67.4714 149.659C71.1542 148.486 72.8783 143.507 71.3224 138.537C69.7665 133.568 65.5198 130.49 61.837 131.663C58.1542 132.836 56.43 137.816 57.9859 142.785C59.5418 147.754 63.7886 150.832 67.4714 149.659Z" fill="#3F3D56"/>
<path d="M77.101 157.165C76.3867 157.587 75.6536 157.981 74.9017 158.349C73.6897 158.943 72.443 159.463 71.1686 159.904C70.0057 160.309 68.8211 160.647 67.6204 160.917C66.7863 161.107 65.9512 161.262 65.1154 161.381C64.0774 161.531 63.042 161.63 62.0091 161.677C49.5944 155.457 38.449 147.849 28.9375 139.16C28.8014 138.792 28.6806 138.422 28.5496 138.046C26.1113 130.672 26.1529 122.693 28.6678 115.346C22.3076 111.039 17.5579 104.71 15.174 97.3672C13.9881 93.7737 13.3809 90.0117 13.3755 86.2244H40.2834L13.6376 81.928C13.9336 79.4572 14.4882 77.0251 15.2922 74.6722C8.93162 70.3665 4.18171 64.0388 1.79839 56.696C-4.17772 38.5281 5.21808 18.8624 22.7842 12.7624C34.5437 8.68359 46.9815 11.7258 55.7144 19.6294L38.2049 45.4807L59.0519 23.1122C61.8726 26.5088 64.0279 30.415 65.4031 34.623C66.9712 39.3759 67.5211 44.4104 67.0166 49.3936L48.0991 55.7942L66.5208 52.7028C66.2138 54.2704 65.8009 55.815 65.2849 57.3257C71.645 61.632 76.3947 67.9595 78.7787 75.3019C79.9335 78.7996 80.5403 82.4577 80.5772 86.1441V86.1726C80.5772 86.4576 80.5772 86.7427 80.5772 87.0277C80.5772 87.1495 80.5772 87.2687 80.5772 87.3905C80.4874 91.0096 79.8453 94.5932 78.6734 98.015C81.2582 99.7616 83.5925 101.859 85.6104 104.247C85.6618 104.304 85.7106 104.361 85.7569 104.421C88.6023 107.831 90.7747 111.758 92.1569 115.991C97.4162 131.98 90.7592 149.134 77.101 157.165Z" fill="#30EADA"/>
</g>
<path opacity="0.1" d="M98.1999 60.0315C98.3396 59.8308 98.4165 59.5925 98.4208 59.3473C98.4208 57.8573 95.4122 56.6523 91.7022 56.6523C87.9922 56.6523 84.9887 57.8677 84.9887 59.3473C84.9939 59.6298 85.0904 59.9028 85.2636 60.1247C81.1348 60.5886 78.3523 61.4619 78.3523 62.457C78.3523 63.9444 84.5185 65.1494 92.1107 65.1494C99.7029 65.1494 105.869 63.9444 105.869 62.457C105.867 61.3893 102.742 60.472 98.1999 60.0315Z" fill="#191919"/>
<path opacity="0.1" d="M204.804 5.36668C205.026 5.04624 205.148 4.66652 205.156 4.27572C205.156 1.915 200.382 0 194.493 0C188.605 0 183.831 1.915 183.831 4.27572C183.842 4.7184 183.996 5.14533 184.27 5.49106C177.713 6.22959 173.297 7.61337 173.297 9.19927C173.297 11.56 183.06 13.475 195.136 13.475C207.211 13.475 216.974 11.56 216.974 9.19927C216.974 7.51749 212.013 6.06375 204.804 5.36668Z" fill="#191919"/>
<path opacity="0.1" d="M119.247 5.36668C119.469 5.04624 119.592 4.66652 119.599 4.27572C119.599 1.915 114.826 0 108.937 0C103.048 0 98.2745 1.915 98.2745 4.27572C98.2851 4.7184 98.4395 5.14533 98.7138 5.49106C92.1571 6.22959 87.7405 7.61337 87.7405 9.19927C87.7405 11.56 97.5165 13.475 109.579 13.475C121.642 13.475 131.418 11.56 131.418 9.19927C131.418 7.51749 126.457 6.06375 119.247 5.36668Z" fill="#191919"/>
<path opacity="0.1" d="M92.2161 27.6881C92.8173 27.3382 93.624 27.6725 94.0351 28.2348C94.4462 28.7972 94.5644 29.5305 94.6671 30.212C94.8958 31.7435 95.0602 33.503 94.0377 34.6588C95.7103 29.5357 100.528 25.6098 105.856 25.0371" stroke="#6C63FF" stroke-width="3" stroke-miterlimit="10"/>
<path opacity="0.1" d="M159.395 2.28807C159.78 2.06263 160.301 2.28807 160.566 2.63791C160.801 3.02253 160.94 3.45932 160.969 3.91025C161.116 4.89497 161.226 6.02479 160.566 6.76073C161.13 5.1161 162.141 3.66433 163.483 2.57075C164.826 1.47718 166.445 0.785743 168.158 0.575195" stroke="#6C63FF" stroke-width="3" stroke-miterlimit="10"/>
<path opacity="0.1" d="M203.586 50.2285C203.971 50.0031 204.493 50.2285 204.758 50.5783C204.993 50.963 205.131 51.3997 205.161 51.8507C205.307 52.8354 205.418 53.9652 204.758 54.7012C205.322 53.0565 206.333 51.6048 207.675 50.5112C209.017 49.4176 210.637 48.7262 212.35 48.5156" stroke="#6C63FF" stroke-width="3" stroke-miterlimit="10"/>
<path d="M140.585 16.8407C139.485 17.7684 138.71 18.9578 137.502 19.7948C136.048 20.8054 134.139 21.189 132.363 21.7306C130.588 22.2721 128.767 23.1221 128.052 24.5966C127.446 25.8586 127.795 27.3227 127.281 28.6132C126.729 29.984 125.295 30.9454 124.198 32.0519C122.03 34.2338 121.066 37.2346 121.629 40.0332C122.017 41.969 123.078 43.757 123.708 45.6461C124.478 47.9576 124.586 50.3805 124.694 52.7775C124.895 57.2786 125.092 61.8238 124.088 66.2525C123.831 67.3641 123.137 84.2675 121.794 84.2338C125.36 83.9254 128.946 83.8917 132.53 83.8555L186.228 83.3372C183.754 80.0721 182.174 60.7769 181.65 56.9288C180.745 50.295 182.934 43.6533 183.191 36.9754C183.227 36.1151 183.227 35.2315 182.875 34.423C182.505 33.5756 181.765 32.8526 181.519 31.9741C181.164 30.7173 181.876 29.4294 181.899 28.139C181.945 25.5476 179.33 23.56 177.256 21.6399C175.257 19.7922 173.595 17.6932 171.532 15.8923C169.469 14.0913 166.876 12.565 163.927 12.2877C161.504 12.0622 159.097 12.6971 156.777 13.3242C154.01 14.0705 151.381 15.0138 148.445 14.9671C145.205 14.9101 143.208 15.1822 140.585 16.8407Z" fill="#2F2E41"/>
<g opacity="0.1">
<path d="M177.572 27.0481C177.647 27.3316 177.756 27.6048 177.896 27.8618C177.861 27.2787 177.721 26.7069 177.482 26.1748C177.471 26.4687 177.501 26.7628 177.572 27.0481V27.0481Z" fill="black"/>
<path d="M125.496 68.6572L125.198 68.6831C125.298 68.6853 125.398 68.6766 125.496 68.6572V68.6572Z" fill="black"/>
</g>
<path d="M181.257 162.039C180.929 162.295 180.538 162.455 180.126 162.503C173.557 163.863 166.928 165.024 160.23 165.392C154.32 165.719 148.393 165.426 142.481 165.133C136.569 164.84 130.663 164.545 124.892 163.34C127.283 158.484 128.789 153.234 129.337 147.841C129.58 145.474 129.639 143.091 129.514 140.715C129.495 140.429 129.461 140.144 129.411 139.862C129.137 138.157 128.458 135.688 129.075 134.454C129.866 132.868 132.906 132.816 134.391 132.521C136.914 132.021 139.45 131.604 141.996 131.254C152.101 129.867 162.308 129.551 172.49 129.243C173.857 129.201 175.486 129.295 176.198 130.474C176.596 131.135 176.575 131.959 176.555 132.733C176.509 134.411 176.525 136.088 176.604 137.766C176.961 145.204 178.539 152.531 181.275 159.448C181.614 160.295 181.925 161.404 181.257 162.039Z" fill="#FBBEBE"/>
<path d="M141.279 69.7593C140.205 71.0938 138.692 71.9904 137.168 72.7782C135.348 73.7265 133.473 74.5642 131.554 75.2866C131.166 75.88 131.475 76.6678 131.811 77.3001C134.825 83.2032 138.859 89.07 144.943 91.6069C148.064 92.9026 151.489 93.2265 154.855 93.5297C155.903 93.623 156.972 93.7163 157.994 93.4623C159.017 93.2084 159.968 92.5942 160.821 91.9438C166.395 87.6894 170.066 81.3762 171.026 74.3926C171.108 73.7733 171.108 73.014 170.581 72.6823C170.26 72.4828 169.852 72.5217 169.474 72.5243C167.01 72.5502 164.826 70.7103 163.688 68.5103C162.55 66.3102 162.247 63.7733 161.967 61.3037C161.967 61.2493 147.481 60.9409 146.173 60.9306C144.133 60.9124 143.46 61.1534 143.262 63.2628C143.054 65.5898 142.797 67.8624 141.279 69.7593Z" fill="#FBBEBE"/>
<path opacity="0.1" d="M141.279 69.7593C140.205 71.0938 138.692 71.9904 137.168 72.7782C135.348 73.7265 133.473 74.5642 131.554 75.2866C131.166 75.88 131.475 76.6678 131.811 77.3001C134.825 83.2032 138.859 89.07 144.943 91.6069C148.064 92.9026 151.489 93.2265 154.855 93.5297C155.903 93.623 156.972 93.7163 157.994 93.4623C159.017 93.2084 159.968 92.5942 160.821 91.9438C166.395 87.6894 170.066 81.3762 171.026 74.3926C171.108 73.7733 171.108 73.014 170.581 72.6823C170.26 72.4828 169.852 72.5217 169.474 72.5243C167.01 72.5502 164.826 70.7103 163.688 68.5103C162.55 66.3102 162.247 63.7733 161.967 61.3037C161.967 61.2493 147.481 60.9409 146.173 60.9306C144.133 60.9124 143.46 61.1534 143.262 63.2628C143.054 65.5898 142.797 67.8624 141.279 69.7593Z" fill="black"/>
<path d="M152.792 66.9995C163.718 66.9995 172.575 58.0661 172.575 47.0461C172.575 36.0262 163.718 27.0928 152.792 27.0928C141.866 27.0928 133.008 36.0262 133.008 47.0461C133.008 58.0661 141.866 66.9995 152.792 66.9995Z" fill="#FBBEBE"/>
<path d="M167.3 70.702C167.519 73.5006 137.697 76.1205 136.572 72.6688C135.904 73.4643 134.678 73.5291 133.702 73.1871C132.726 72.845 131.904 72.1868 130.979 71.7022C129.437 70.8911 127.7 70.5905 125.992 70.2977C123.209 69.8235 119.977 69.4762 117.917 71.4223C117.205 72.0935 116.719 72.9772 116.005 73.6509C114.756 74.8222 112.991 75.1876 111.38 75.724C109.055 76.5014 106.912 77.7452 104.716 78.8336C99.5864 81.3808 94.1176 83.1632 88.4805 84.1251C87.2806 84.3298 86.0731 84.4957 84.8835 84.7833C83.2135 85.1876 81.5435 85.8795 80.4053 87.1777C81.7362 88.8932 83.6477 89.8287 85.7005 90.505L105.51 97.0352C108.49 98.0173 111.517 99.0202 114.124 100.78C118.469 103.703 121.295 108.507 122.842 113.537C124.389 118.567 124.787 123.874 125.172 129.126C125.339 131.409 125.491 133.791 124.602 135.905C129.216 136.454 133.882 136.376 138.476 135.675C142.898 134.996 147.27 133.736 151.744 133.778C156.625 133.827 161.355 135.423 166.167 136.286C170.98 137.149 176.29 137.175 180.345 134.421C179.481 133.247 179.35 131.57 179.317 130.114L179.214 123.213C179.168 122.38 179.223 121.545 179.379 120.725C179.723 119.248 180.691 118.01 181.311 116.628C182.505 113.962 182.338 110.914 182.405 107.989C182.472 105.063 182.878 101.92 184.838 99.7794C186.123 98.3827 187.921 97.5897 189.746 97.1C192.865 96.2604 196.128 96.206 199.349 95.9753C209.853 95.2158 220.13 92.5166 229.667 88.0121C229.096 86.7968 227.771 86.1075 226.561 85.5426C223.698 84.208 220.667 82.8398 217.527 83.1378C216.009 83.2829 214.506 83.8168 212.992 83.6224C211.559 83.4358 210.289 82.617 208.897 82.2257C207.841 81.9303 206.736 81.8862 205.652 81.7203C203.149 81.3342 200.801 80.2951 198.486 79.2663L192.639 76.675C191.097 75.9883 189.491 75.2549 188.433 73.9282C188.088 73.4954 187.811 73.0082 187.436 72.6014C186.791 71.9043 185.894 71.4923 184.998 71.2047C183.871 70.8093 182.67 70.6764 181.485 70.816C180.673 70.9788 179.87 71.1908 179.083 71.4509C175.219 72.5029 171.231 71.4094 167.3 70.702Z" fill="#30EADA"/>
<path d="M189.928 175.068C179.397 177.622 168.67 179.269 157.863 179.992H157.845H130.711H130.696C125.84 179.658 121.054 179.149 116.339 178.463C117.73 174.285 119.648 170.305 122.045 166.621C122.429 166.099 122.729 165.52 122.934 164.905C123.047 164.332 123.105 163.75 123.106 163.166C123.231 161.378 123.919 159.677 125.069 158.31C125.604 158.604 126.143 158.886 126.688 159.157C132.859 162.249 139.579 164.068 146.456 164.509C150.073 164.696 153.699 164.622 157.306 164.288C165.44 163.628 173.898 162.104 180.45 157.266C180.725 157.064 180.997 156.854 181.267 156.639C184.45 159.489 186.292 163.858 187.61 167.942C188.394 170.331 189.118 172.715 189.928 175.068Z" fill="#30EADA"/>
<path opacity="0.1" d="M152.684 158.583C152.556 159.001 152.524 159.444 152.592 159.876C152.66 160.309 152.825 160.72 153.074 161.078C153.241 160.704 153.29 160.287 153.216 159.883C153.142 159.479 152.947 159.108 152.658 158.819L152.684 158.583Z" fill="black"/>
<path d="M141.443 74.815C142.44 74.2656 143.517 73.7784 144.652 73.7629C146.358 73.7473 147.884 74.7994 149.149 75.9603C150.317 77.0249 151.374 78.2076 152.304 79.4897C152.766 80.1246 153.208 80.8217 153.277 81.6069C153.347 82.392 152.92 83.2757 152.16 83.4623C151.679 83.544 151.186 83.4434 150.775 83.1798C149.018 82.2055 147.715 79.9743 145.721 80.192C144.354 80.3397 143.429 81.6224 142.682 82.7833C142.016 83.8199 141.343 84.8849 141.045 86.0821C140.747 87.2793 140.891 88.6735 141.718 89.5752C142.361 90.2827 143.298 90.6118 144.174 90.9798C146.112 91.7887 147.886 92.9499 149.408 94.4055C150.145 95.1155 150.847 95.9603 150.95 96.9969C151.052 98.0334 150.274 99.1736 149.256 99.101C148.798 99.0286 148.365 98.8386 148 98.5491C146.16 97.3234 144.282 96.0381 142.124 95.5872C139.927 95.1285 137.659 95.5872 135.444 95.9292C133.015 96.2955 130.574 96.5563 128.122 96.7118C127.394 96.796 126.657 96.7478 125.945 96.5693C123.52 95.8126 122.814 92.7004 123.096 90.4511C123.397 88.0464 125.152 87.4996 126.986 86.305C132.145 82.8999 135.973 77.8209 141.443 74.815Z" fill="#FBBEBE"/>
<path d="M160.448 74.815C159.449 74.2656 158.375 73.7784 157.236 73.7629C155.53 73.7473 154.004 74.7994 152.74 75.9603C151.572 77.025 150.516 78.2077 149.588 79.4897C149.128 80.1246 148.686 80.8217 148.617 81.6069C148.547 82.392 148.971 83.2757 149.732 83.4623C150.213 83.5439 150.707 83.4433 151.119 83.1798C152.876 82.2055 154.179 79.9743 156.17 80.192C157.54 80.3397 158.464 81.6224 159.21 82.7833C159.875 83.8199 160.551 84.8849 160.846 86.0821C161.142 87.2793 161 88.6735 160.173 89.5752C159.533 90.2827 158.593 90.6118 157.717 90.9798C155.778 91.789 154.004 92.9502 152.481 94.4055C151.743 95.1155 151.044 95.9603 150.939 96.9969C150.834 98.0334 151.615 99.1736 152.632 99.101C153.091 99.0291 153.524 98.839 153.889 98.5491C155.728 97.3234 157.606 96.0381 159.765 95.5872C161.961 95.1285 164.23 95.5872 166.445 95.9292C168.867 96.3128 171.311 96.5797 173.759 96.7274C174.488 96.8116 175.226 96.7633 175.938 96.5848C178.361 95.8282 179.067 92.716 178.787 90.4667C178.484 88.0619 176.732 87.5151 174.895 86.3205C169.746 82.8999 165.921 77.8209 160.448 74.815Z" fill="#FBBEBE"/>
<path d="M139.113 39.837C140.264 38.0023 141.631 36.0122 143.499 35.7997C146.106 35.5017 148.144 38.7901 150.739 39.2151C154.079 39.7644 157.362 35.4524 160.502 37.028C162.044 37.8054 163.195 39.9614 164.87 39.9199C166.028 39.894 166.971 38.7979 167.74 37.7225C169.036 35.9093 170.183 33.9922 171.17 31.9904C167.981 28.3029 163.344 27.4607 159.014 26.7896L151.736 25.6623C149.983 25.3903 148.2 25.1208 146.458 25.4965C144.883 25.836 143.414 26.6911 141.988 27.5903C140.287 28.6683 136.287 30.3993 135.244 32.405C134.516 33.7966 135.516 34.4444 136.454 35.8463C137.336 37.1766 138.222 38.5068 139.113 39.837Z" fill="#2F2E41"/>
<path opacity="0.1" d="M128.088 84.874C124.931 85.5099 121.707 85.7415 118.492 85.5633C117.23 85.4959 115.964 85.3638 114.707 85.483C113.192 85.6281 111.735 86.1334 110.257 86.5014C102.604 88.4008 94.6055 86.5454 86.7924 85.5037C85.4127 85.3197 84.0021 85.1617 82.6353 85.4312C81.3841 85.6773 80.2279 86.2682 79.1205 86.903C77.3263 87.9321 75.6089 89.0918 73.982 90.3729C72.2786 91.7152 70.5597 93.4255 70.4416 95.5996C70.3388 97.4705 71.4693 99.1938 72.8387 100.466C76.5384 103.92 82.0315 104.96 86.9851 104.024C88.8683 103.669 90.7054 103.057 92.6092 102.845C94.5593 102.627 96.5299 102.845 98.4902 102.752C102.473 102.573 106.285 101.176 110.152 100.204C116.19 98.688 122.437 98.1941 128.635 98.7429C128.582 98.7665 128.523 98.7777 128.464 98.7758C128.406 98.7739 128.348 98.7589 128.296 98.7319C128.243 98.7049 128.198 98.6665 128.162 98.6196C128.126 98.5727 128.101 98.5183 128.088 98.4604C127.633 97.1959 127.61 95.8199 127.618 94.475C127.639 91.2124 127.79 88.1236 128.088 84.874Z" fill="black"/>
<path d="M127.574 85.1338C124.417 85.7696 121.193 86.0012 117.978 85.8231C116.717 85.7557 115.45 85.6236 114.194 85.7428C112.678 85.8879 111.221 86.3932 109.744 86.7612C102.09 88.6606 94.0916 86.8052 86.2784 85.7635C84.8987 85.5795 83.4882 85.4214 82.1214 85.6909C80.8701 85.9371 79.714 86.5279 78.6066 87.1628C76.8124 88.1919 75.095 89.3516 73.4681 90.6326C71.7647 91.9749 70.0458 93.6852 69.9276 95.8594C69.8249 97.7303 70.9553 99.4536 72.3248 100.726C76.0245 104.18 81.5176 105.219 86.4711 104.284C88.3544 103.929 90.1914 103.317 92.0953 103.105C94.0453 102.887 96.016 103.105 97.9763 103.011C101.959 102.833 105.771 101.436 109.638 100.464C115.677 98.9478 121.923 98.4539 128.122 99.0027C128.068 99.0262 128.009 99.0374 127.95 99.0355C127.892 99.0336 127.834 99.0187 127.782 98.9917C127.73 98.9647 127.684 98.9263 127.648 98.8794C127.612 98.8325 127.587 98.7781 127.574 98.7202C127.119 97.4556 127.096 96.0796 127.104 94.7347C127.125 91.4722 127.276 88.3833 127.574 85.1338Z" fill="#30EADA"/>
<path opacity="0.1" d="M174.399 83.4879C178.315 84.3871 187.739 84.7835 191.752 84.6488C193.584 84.5918 195.411 84.4259 197.243 84.4311C200.382 84.4311 203.517 84.9494 206.649 84.7395C210.695 84.4596 214.67 82.9592 218.706 83.3453C220.69 83.5371 222.599 84.1746 224.49 84.812C226.381 85.4495 228.441 86.1699 229.772 87.7195C231.005 89.1551 231.455 91.0883 231.863 92.9437C232.092 93.9802 232.321 95.0504 232.12 96.0896C231.737 98.0616 229.936 99.3961 228.207 100.391C226.152 101.573 223.896 102.589 221.527 102.534C220.122 102.503 218.755 102.094 217.416 101.669C213.58 100.453 209.66 99.0774 205.652 99.3806C202.849 99.5983 200.048 100.64 197.291 100.078C195.67 99.746 194.208 98.8804 192.667 98.3052C188.91 96.9188 179.376 97.2868 175.393 97.6703C175.625 95.4132 175.596 93.138 175.828 90.8784C176.008 89.1499 176.18 87.3593 175.63 85.7112C175.286 84.7239 175.17 84.1875 174.399 83.4879Z" fill="black"/>
<path d="M174.656 84.0064C178.572 84.9056 187.996 85.3021 192.009 85.1673C193.841 85.1103 195.667 84.9445 197.499 84.9497C200.639 84.9497 203.773 85.4679 206.905 85.258C210.952 84.9782 214.927 83.4778 218.963 83.8639C220.946 84.0556 222.855 84.6931 224.746 85.3306C226.637 85.9681 228.698 86.6885 230.029 88.2381C231.262 89.6737 231.712 91.6068 232.12 93.4622C232.349 94.4988 232.578 95.569 232.377 96.6081C231.994 98.5801 230.193 99.9147 228.464 100.91C226.409 102.091 224.153 103.107 221.784 103.053C220.379 103.022 219.012 102.612 217.673 102.187C213.837 100.972 209.917 99.5959 205.909 99.8991C203.105 100.117 200.305 101.159 197.548 100.596C195.927 100.265 194.465 99.399 192.923 98.8237C189.167 97.4373 179.633 97.8053 175.65 98.1888C175.882 95.9318 175.853 93.6566 176.085 91.3969C176.264 89.6685 176.437 87.8779 175.887 86.2298C175.542 85.2425 175.427 84.7061 174.656 84.0064Z" fill="#30EADA"/>
<path d="M133.833 44.545C133.232 44.3869 133.001 43.6199 132.459 43.3115C131.916 43.0032 131.238 43.2467 130.848 43.7054C130.485 44.1908 130.288 44.7819 130.288 45.3898C130.239 46.7006 130.593 47.9944 131.302 49.0945C132.01 50.1947 133.037 51.0475 134.244 51.5365C133.707 49.1776 133.499 46.7545 133.628 44.3377L133.833 44.545Z" fill="#FBBEBE"/>
<path d="M171.748 44.545C172.349 44.3869 172.578 43.6199 173.12 43.3115C173.662 43.0032 174.34 43.2467 174.731 43.7054C175.095 44.1902 175.291 44.7817 175.291 45.3898C175.339 46.7006 174.985 47.9944 174.277 49.0945C173.568 50.1947 172.541 51.0475 171.334 51.5365C171.871 49.1776 172.079 46.7545 171.951 44.3377L171.748 44.545Z" fill="#FBBEBE"/>
<g opacity="0.1">
<path d="M147.121 102.008C147.611 103.814 147.849 105.681 147.828 107.553C147.828 110.811 147.193 113.653 146.248 115.18C146.168 115.905 146.078 116.626 145.991 117.333C147.324 116.296 148.303 112.891 148.303 108.849C148.293 106.087 147.835 103.622 147.121 102.008Z" fill="black"/>
</g>
<g opacity="0.1">
<path d="M154.359 102.008C153.868 103.814 153.629 105.681 153.65 107.553C153.65 110.811 154.287 113.653 155.232 115.18C155.312 115.905 155.399 116.626 155.489 117.333C154.156 116.296 153.177 112.891 153.177 108.849C153.174 106.087 153.632 103.622 154.359 102.008Z" fill="black"/>
</g>
<path opacity="0.1" d="M167.719 36.4263C166.948 37.5017 166.008 38.5978 164.849 38.6237C163.171 38.6652 162.023 36.5144 160.481 35.7318C157.355 34.1562 154.079 38.4682 150.718 37.9189C148.123 37.4939 146.094 34.2055 143.478 34.5035C141.61 34.716 140.243 36.7061 139.092 38.5408C138.202 37.2123 137.312 35.8821 136.423 34.5501C135.909 33.7727 135.351 33.2156 135.102 32.6403C134.604 33.8738 135.539 34.5268 136.423 35.8458C137.307 37.1648 138.201 38.5071 139.092 39.8365C140.243 38.0018 141.61 36.0116 143.478 35.7992C146.086 35.5012 148.123 38.7896 150.718 39.2146C154.058 39.7639 157.342 35.4519 160.481 37.0275C162.023 37.8049 163.174 39.9609 164.849 39.9194C166.008 39.8935 166.951 38.7973 167.719 37.7219C169.015 35.9088 170.163 33.9917 171.149 31.9899C171.01 31.8292 170.866 31.6737 170.72 31.5234C169.834 33.2261 168.831 34.8643 167.719 36.4263V36.4263Z" fill="black"/>
</g>
<defs>
<clipPath id="clip0_564_1208">
<rect width="282" height="180" fill="white"/>
</clipPath>
</defs>
</svg>
