<svg width="65" height="65" viewBox="0 0 65 65" fill="none" xmlns="http://www.w3.org/2000/svg">
<path d="M65.0005 64.901L51.8048 61.7582L45.6832 50.168H57.0594L65.0005 64.901Z" fill="url(#paint0_linear_395_1308)"/>
<path d="M63.2373 63.5428C63.055 63.5428 62.8765 63.4432 62.7854 63.2692L56.9896 52.2537H53.7348L57.748 59.7531C57.8819 60.0032 57.7887 60.316 57.5405 60.4508C57.2922 60.5857 56.9818 60.4919 56.848 60.2417L52.0221 51.2236H57.6045L63.6892 62.7865C63.8211 63.0386 63.7261 63.3494 63.4778 63.4823C63.4002 63.5233 63.3188 63.5428 63.2373 63.5428Z" fill="#5CA499"/>
<path d="M50.1464 57.959C49.964 57.959 49.7875 57.8613 49.6964 57.6893L46.5871 51.8903C46.4532 51.6401 46.5463 51.3274 46.7946 51.1925C47.0429 51.0576 47.3532 51.1515 47.4871 51.4016L50.5964 57.2006C50.7302 57.4508 50.6371 57.7635 50.3888 57.8984C50.3132 57.9394 50.2298 57.959 50.1464 57.959Z" fill="#5CA499"/>
<path d="M3.1287 52.2164L24.9753 10.7537L46.7598 52.2164H52.5477L25.0819 0L0 47.5667L3.1287 52.2164Z" fill="#69B8A7"/>
<path d="M3.1287 52.2164L24.9753 10.7537L46.7598 52.2164H52.5477L25.0819 0L0 47.5667L3.1287 52.2164Z" fill="url(#paint1_linear_395_1308)"/>
<path d="M45.1828 52.2167H3.12866L24.9752 10.7539L28.005 16.5001L11.6768 47.5669H42.7543L45.1828 52.2167Z" fill="#549497"/>
<path d="M14.1209 42.917L11.6769 47.5667H42.7544L40.3899 42.917H14.1209Z" fill="#437777"/>
<path d="M58.1514 52.2164L30.6468 0H25.0819L52.5477 52.2164H58.1514Z" fill="#5CA499"/>
<path d="M25.1459 30.4004V37.2939C25.1459 38.2751 24.9132 39.0061 24.4477 39.4869C23.9821 39.9677 23.216 40.2081 22.1472 40.2081C21.6797 40.2081 21.1735 40.1592 20.6304 40.0595V38.1832C21.0746 38.2594 21.4567 38.2966 21.7748 38.2966C22.056 38.2966 22.2772 38.2458 22.4381 38.1441C22.5991 38.0425 22.7175 37.9194 22.7931 37.7728C22.8688 37.6262 22.9056 37.3721 22.9056 37.0086V30.3984H25.1459V30.4004Z" fill="white"/>
<path d="M22.1472 40.4037C21.6701 40.4037 21.1483 40.3528 20.5955 40.2512L20.4384 40.2219V37.9566L20.6614 37.9938C21.094 38.068 21.4683 38.1052 21.7748 38.1052C22.0173 38.1052 22.2073 38.0641 22.3373 37.982C22.4692 37.898 22.5642 37.8022 22.6224 37.6849C22.6632 37.6048 22.7136 37.4211 22.7136 37.0087V30.2051H25.338V37.2921C25.338 38.3202 25.0839 39.1039 24.5854 39.6219C24.083 40.1398 23.2645 40.4037 22.1472 40.4037ZM20.8224 39.8994C21.2938 39.9776 21.7399 40.0167 22.1472 40.0167C23.1558 40.0167 23.8832 39.7939 24.3099 39.3521C24.7367 38.9104 24.9539 38.2185 24.9539 37.294V30.594H23.0977V37.0106C23.0977 37.4094 23.053 37.6869 22.9638 37.8628C22.8726 38.0407 22.7311 38.1912 22.541 38.3104C22.3489 38.4316 22.091 38.4922 21.7767 38.4922C21.5052 38.4922 21.1851 38.4648 20.8244 38.412V39.8994H20.8224Z" fill="#6AB8A7"/>
<path d="M27.8615 40.0611C27.2621 40.0611 26.7772 39.5725 26.7772 38.9685C26.7772 38.3646 27.2621 37.876 27.8615 37.876C28.4609 37.876 28.9458 38.3646 28.9458 38.9685C28.9458 39.5705 28.4609 40.0611 27.8615 40.0611Z" fill="white"/>
<path d="M27.8615 40.2547C27.1574 40.2547 26.5852 39.6782 26.5852 38.9687C26.5852 38.2592 27.1574 37.6826 27.8615 37.6826C28.5656 37.6826 29.1378 38.2592 29.1378 38.9687C29.1378 39.6782 28.5656 40.2547 27.8615 40.2547ZM27.8615 38.0677C27.3688 38.0677 26.9673 38.4722 26.9673 38.9687C26.9673 39.4651 27.3688 39.8697 27.8615 39.8697C28.3542 39.8697 28.7557 39.4651 28.7557 38.9687C28.7538 38.4703 28.3542 38.0677 27.8615 38.0677Z" fill="#6AB8A7"/>
<path d="M31.2928 25.0977V31.9912C31.2928 32.9723 31.06 33.7033 30.5945 34.1841C30.129 34.6649 29.3628 34.9053 28.294 34.9053C27.8266 34.9053 27.3203 34.8565 26.7772 34.7568V32.8805C27.2214 32.9567 27.6035 32.9938 27.9216 32.9938C28.2029 32.9938 28.424 32.943 28.585 32.8414C28.746 32.7398 28.8643 32.6166 28.94 32.47C29.0156 32.3234 29.0525 32.0694 29.0525 31.7058V25.0957H31.2928V25.0977Z" fill="white"/>
<path d="M28.2941 35.099C27.8169 35.099 27.2951 35.0482 26.7423 34.9465L26.5852 34.9172V32.6539L26.8083 32.691C27.2408 32.7653 27.6152 32.8024 27.9216 32.8024C28.1641 32.8024 28.3542 32.7614 28.4841 32.6793C28.616 32.5972 28.7111 32.4975 28.7693 32.3822C28.81 32.3021 28.8604 32.1184 28.8604 31.706V24.9023H31.4848V31.9894C31.4848 33.0174 31.2307 33.8012 30.7322 34.3191C30.2299 34.8371 29.4094 35.099 28.2941 35.099ZM26.9673 34.5947C27.4387 34.6729 27.8829 34.712 28.2921 34.712C29.3008 34.712 30.0281 34.4892 30.4549 34.0474C30.8816 33.6057 31.0988 32.9138 31.0988 31.9894V25.2893H29.2426V31.706C29.2426 32.1047 29.1979 32.3822 29.1087 32.5581C29.0176 32.736 28.876 32.8865 28.6839 33.0057C28.4919 33.1269 28.2359 33.1875 27.9197 33.1875C27.6462 33.1875 27.3281 33.1601 26.9673 33.1073V34.5947Z" fill="#6AB8A7"/>
<path d="M34.0064 34.7584C33.407 34.7584 32.9221 34.2697 32.9221 33.6658C32.9221 33.0619 33.407 32.5732 34.0064 32.5732C34.6058 32.5732 35.0907 33.0619 35.0907 33.6658C35.0926 34.2678 34.6058 34.7584 34.0064 34.7584Z" fill="white"/>
<path d="M34.0064 34.95C33.3023 34.95 32.7301 34.3735 32.7301 33.664C32.7301 32.9545 33.3023 32.3779 34.0064 32.3779C34.7105 32.3779 35.2827 32.9545 35.2827 33.664C35.2827 34.3735 34.7105 34.95 34.0064 34.95ZM34.0064 32.763C33.5137 32.763 33.1122 33.1675 33.1122 33.664C33.1122 34.1604 33.5137 34.565 34.0064 34.565C34.4991 34.565 34.9006 34.1604 34.9006 33.664C34.9006 33.1675 34.4991 32.763 34.0064 32.763Z" fill="#6AB8A7"/>
<path d="M10.9534 31.3325L10.5111 32.2355C10.4684 32.2062 10.4335 32.1866 10.4102 32.173C10.2609 32.0909 10.1077 32.0713 9.95054 32.1124C9.79342 32.1534 9.66153 32.2746 9.55484 32.472C9.38027 32.7964 9.40355 33.1131 9.62855 33.416C9.85161 33.7209 10.1077 33.9496 10.3947 34.1079C10.6081 34.2232 10.7943 34.2486 10.9572 34.1841C11.1182 34.1177 11.2501 33.9926 11.351 33.805C11.5546 33.4238 11.5139 33.0642 11.2249 32.7222L11.7603 31.9834C12.2762 32.6459 12.3189 33.3808 11.8863 34.1841C11.6187 34.6825 11.2889 34.9933 10.8971 35.1184C10.5053 35.2435 10.1309 35.2103 9.77597 35.0168C9.30269 34.7588 8.97876 34.36 8.80225 33.8206C8.62574 33.2812 8.69169 32.73 8.99622 32.1612C9.21734 31.7508 9.49666 31.4596 9.8361 31.2876C10.1697 31.1175 10.5441 31.1312 10.9534 31.3325Z" fill="white"/>
<path d="M14.5767 29.0397L14.0821 29.9623L13.3625 29.7316L12.6642 31.0314L13.1161 31.7604L12.6661 32.5989L10.6915 29.1355L11.2599 28.0762L14.5767 29.0397ZM12.3053 30.4509L12.7922 29.546L11.4849 29.1257L12.3053 30.4509Z" fill="white"/>
<path d="M14.4371 22.1621L17.0556 24.4274L16.5688 25.3343L14.3789 23.4384L16.0179 26.3584L15.7405 26.8744L12.9532 26.0262L15.1664 27.9416L14.7746 28.6725L12.156 26.4073L12.8853 25.0509L14.8851 25.6958L13.6806 23.5693L14.4371 22.1621Z" fill="white"/>
<path d="M16.9663 21.9156L17.9478 22.7658L17.4687 23.657L14.8501 21.3918L15.5949 20.008C15.7579 19.7031 15.9111 19.4705 16.0527 19.3122C16.1943 19.1519 16.3708 19.0444 16.5822 18.9877C16.7937 18.931 17.0012 18.9584 17.2029 19.0679C17.3542 19.15 17.4803 19.2731 17.585 19.4353C17.6898 19.5995 17.7422 19.7793 17.7441 19.9767C17.746 20.1741 17.7247 20.3442 17.682 20.4868C17.6374 20.6295 17.5462 20.8308 17.4066 21.0927L16.9663 21.9156ZM15.7967 20.9031L16.5085 21.5188L16.8674 20.8523C16.9896 20.6236 17.0381 20.4341 17.0128 20.2816C16.9857 20.1311 16.912 20.0217 16.7917 19.9552C16.6986 19.9044 16.59 19.9005 16.4658 19.9435C16.3417 19.9865 16.2021 20.1526 16.0469 20.4419L15.7967 20.9031Z" fill="white"/>
<path d="M19.9922 49.1091L19.0961 49.2713C18.9933 48.9899 18.745 48.8492 18.3493 48.8492C18.165 48.8492 18.0196 48.8824 17.9129 48.9508C17.8043 49.0192 17.7519 49.1013 17.7519 49.1971C17.7519 49.2928 17.7965 49.3671 17.8838 49.416C17.9711 49.4648 18.1379 49.5137 18.3862 49.5625C18.7431 49.6329 19.0243 49.7052 19.228 49.7834C19.4336 49.8596 19.5907 49.9691 19.7013 50.1059C19.8118 50.2447 19.8661 50.4128 19.8661 50.6121C19.8661 50.9327 19.7148 51.2004 19.4122 51.4154C19.1097 51.6304 18.6771 51.7379 18.1185 51.7379C17.6394 51.7379 17.2437 51.6519 16.9256 51.4799C16.6094 51.3079 16.4116 51.0499 16.334 50.704L17.2689 50.6043C17.3659 50.9405 17.6607 51.1105 18.1553 51.1105C18.3803 51.1105 18.551 51.0734 18.6713 50.9991C18.7916 50.9248 18.8497 50.831 18.8497 50.7157C18.8497 50.6063 18.8051 50.5281 18.714 50.4792C18.6228 50.4303 18.4133 50.3717 18.0816 50.3013C17.781 50.2408 17.5405 50.1724 17.362 50.0981C17.1836 50.0238 17.042 49.9183 16.9353 49.7815C16.8305 49.6446 16.7762 49.4883 16.7762 49.3124C16.7762 49.0251 16.9159 48.7729 17.1952 48.554C17.4745 48.3351 17.8605 48.2257 18.3512 48.2257C19.1969 48.2198 19.7439 48.5169 19.9922 49.1091Z" fill="white"/>
<path d="M24.1916 49.5527L23.1926 49.5898C23.1965 49.539 23.1984 49.498 23.1984 49.4706C23.1984 49.2986 23.1422 49.154 23.0316 49.0348C22.9211 48.9155 22.7523 48.8569 22.5293 48.8569C22.1627 48.8569 21.8989 49.0289 21.7398 49.3709C21.5808 49.713 21.5012 50.0491 21.5012 50.3775C21.5012 50.6218 21.5691 50.7997 21.703 50.9111C21.8368 51.0225 22.0094 51.0792 22.2209 51.0792C22.6495 51.0792 22.9443 50.87 23.1053 50.4518L24.0054 50.5729C23.6717 51.3469 23.053 51.7339 22.1452 51.7339C21.5846 51.7339 21.154 51.5893 20.8573 51.302C20.5605 51.0147 20.4111 50.6668 20.4111 50.2602C20.4111 49.7169 20.6032 49.24 20.9911 48.8276C21.3771 48.4152 21.8911 48.21 22.5312 48.208C22.9948 48.208 23.3827 48.3175 23.6931 48.5344C24.0073 48.7572 24.1722 49.0953 24.1916 49.5527Z" fill="white"/>
<path d="M28.4279 48.2725L27.6985 51.6713H26.7345L27.041 50.2504H25.6289L25.3224 51.6713H24.3623L25.0916 48.2725H26.0556L25.7686 49.6054H27.1807L27.4677 48.2725H28.4279Z" fill="white"/>
<path d="M30.4335 51.7222C29.9176 51.7222 29.5005 51.5873 29.1863 51.3176C28.8721 51.0479 28.713 50.6902 28.713 50.2446C28.713 49.7071 28.8992 49.2341 29.2736 48.8276C29.6479 48.421 30.1426 48.2178 30.7613 48.2178C31.2928 48.2178 31.7156 48.3546 32.0279 48.6282C32.3402 48.9018 32.4973 49.2654 32.4973 49.7169C32.4973 50.2622 32.3111 50.7332 31.9406 51.13C31.5702 51.5248 31.0678 51.7222 30.4335 51.7222ZM30.449 51.0948C30.8253 51.0948 31.093 50.9267 31.2559 50.5905C31.4189 50.2544 31.4984 49.926 31.4984 49.6035C31.4984 49.0973 31.254 48.8432 30.7652 48.8432C30.418 48.8432 30.1561 49.0015 29.9816 49.3162C29.807 49.6328 29.7197 49.9788 29.7197 50.356C29.7197 50.8505 29.9622 51.0948 30.449 51.0948Z" fill="white"/>
<path d="M34.6542 51.7222C34.1383 51.7222 33.7212 51.5873 33.407 51.3176C33.0928 51.0479 32.9337 50.6902 32.9337 50.2446C32.9337 49.7071 33.1199 49.2341 33.4943 48.8276C33.8686 48.421 34.3633 48.2178 34.982 48.2178C35.5135 48.2178 35.9363 48.3546 36.2486 48.6282C36.5609 48.9018 36.718 49.2654 36.718 49.7169C36.718 50.2622 36.5318 50.7332 36.1613 51.13C35.7909 51.5228 35.2865 51.7222 34.6542 51.7222ZM34.6697 51.0948C35.046 51.0948 35.3137 50.9267 35.4766 50.5905C35.6396 50.2544 35.7191 49.926 35.7191 49.6035C35.7191 49.0973 35.4747 48.8432 34.9859 48.8432C34.6387 48.8432 34.3768 49.0015 34.2023 49.3162C34.0277 49.6328 33.9404 49.9788 33.9404 50.356C33.9385 50.8485 34.1829 51.0948 34.6697 51.0948Z" fill="white"/>
<path d="M38.7449 48.2686L38.1553 51.0224H39.8758L39.7381 51.6674H37.0128L37.7421 48.2686H38.7449Z" fill="white"/>
<path d="M40.7545 23.7235L40.2522 22.8538C40.2987 22.8342 40.3356 22.8166 40.3608 22.8029C40.5101 22.7228 40.613 22.6036 40.6634 22.4492C40.7158 22.2948 40.6886 22.1169 40.5839 21.9175C40.4112 21.5911 40.1377 21.4387 39.7614 21.4582C39.3871 21.4778 39.0554 21.5657 38.7664 21.7201C38.553 21.8355 38.4289 21.9781 38.394 22.1501C38.359 22.3221 38.392 22.5019 38.4909 22.6896C38.6927 23.0707 39.0147 23.2349 39.4569 23.1802L39.7731 24.0382C38.939 24.1066 38.3086 23.7372 37.8819 22.93C37.6181 22.4316 37.5424 21.982 37.6549 21.5833C37.7674 21.1846 38.0021 20.8895 38.3571 20.6979C38.8323 20.4419 39.3405 20.3891 39.8836 20.5396C40.4267 20.6882 40.8476 21.0478 41.1502 21.6185C41.3675 22.0309 41.4548 22.4257 41.4102 22.8068C41.3636 23.1841 41.1464 23.489 40.7545 23.7235Z" fill="white"/>
<path d="M42.7698 24.8122L40.0795 25.5822L40.8903 27.1126L40.2599 27.2944L38.9778 24.8708L42.2966 23.9209L42.7698 24.8122Z" fill="white"/>
<path d="M45.3748 29.7316L43.5224 30.2633C43.1617 30.3649 42.9114 30.4216 42.7737 30.4372C42.636 30.4509 42.4808 30.4274 42.3082 30.3649C42.1356 30.3024 41.961 30.1792 41.7826 29.9994C41.606 29.8196 41.4373 29.5812 41.2821 29.286C41.0319 28.813 40.9213 28.4124 40.9524 28.082C40.9834 27.7517 41.125 27.5192 41.3791 27.3843C41.4664 27.3374 41.5711 27.2963 41.6933 27.2592L43.7533 26.6709L44.2595 27.6266L42.3218 28.1837C42.186 28.2228 42.0716 28.2677 41.9804 28.3166C41.8388 28.3928 41.7748 28.5101 41.7864 28.6684C41.7981 28.8267 41.8446 28.9831 41.928 29.1394C42.0231 29.3173 42.1259 29.4482 42.2403 29.5303C42.3528 29.6124 42.4556 29.6476 42.5429 29.6378C42.6321 29.6281 42.8513 29.5733 43.2024 29.4717L44.9694 28.9674L45.3748 29.7316Z" fill="white"/>
<path d="M45.7511 30.4453L46.6376 32.1184C46.8141 32.4526 46.9149 32.7184 46.9402 32.9178C46.9654 33.1171 46.9421 33.2891 46.8723 33.4357C46.8024 33.5823 46.6977 33.6937 46.558 33.7699C46.1779 33.9732 45.7899 33.809 45.3904 33.2735C45.5397 33.8012 45.4466 34.153 45.1169 34.3309C44.8783 34.4599 44.6145 34.4599 44.3235 34.3367C44.0345 34.2116 43.7436 33.8755 43.4526 33.3243L42.4304 31.3952L45.7511 30.4453ZM44.3313 31.8819L43.4992 32.1203L43.9162 32.908C44.0365 33.1347 44.1606 33.2813 44.2925 33.3536C44.4244 33.4259 44.5427 33.4318 44.6494 33.3732C44.7794 33.3028 44.8434 33.1992 44.8434 33.0604C44.8434 32.9217 44.7774 32.7262 44.6436 32.4741L44.3313 31.8819ZM45.6677 31.4988L44.8938 31.7196L45.2177 32.3314C45.3283 32.5405 45.4136 32.6813 45.4718 32.7536C45.532 32.8259 45.6057 32.8787 45.693 32.908C45.7822 32.9393 45.8733 32.9275 45.9684 32.8767C46.1914 32.7575 46.1992 32.5014 45.9917 32.1105L45.6677 31.4988Z" fill="white"/>
<defs>
<linearGradient id="paint0_linear_395_1308" x1="54.6561" y1="61.1394" x2="55.8983" y2="54.7112" gradientUnits="userSpaceOnUse">
<stop stop-color="#5DA393" stop-opacity="0"/>
<stop offset="1" stop-color="#5CA499"/>
</linearGradient>
<linearGradient id="paint1_linear_395_1308" x1="27.464" y1="52.7587" x2="30.4431" y2="59.8286" gradientUnits="userSpaceOnUse">
<stop stop-color="#5DA393" stop-opacity="0"/>
<stop offset="1" stop-color="#5CA499"/>
</linearGradient>
</defs>
</svg>
