<svg width="24" height="24" viewBox="0 0 24 24" fill="none" xmlns="http://www.w3.org/2000/svg">
<path fill-rule="evenodd" clip-rule="evenodd" d="M11.9999 3.25C12 3.25 12 3.25 12 4L12 4.75L11.924 4.75011C11.8738 4.75022 11.7996 4.75044 11.7046 4.75089C11.5144 4.75178 11.2404 4.75357 10.9062 4.75714C10.2374 4.7643 9.32863 4.7786 8.3673 4.80717C7.40477 4.83577 6.39554 4.8785 5.52396 4.94208C4.63579 5.00686 3.9528 5.08951 3.59901 5.18315C3.25731 5.2808 2.9472 5.46646 2.69971 5.7216C2.45638 5.97246 2.28203 6.28178 2.19336 6.61956C1.88992 8.31141 1.74152 10.0274 1.75001 11.7463L1.75005 11.7547C1.73921 13.4823 1.8868 15.2071 2.19107 16.9077C2.28894 17.2304 2.46576 17.5239 2.70574 17.7614C2.95338 18.0065 3.25993 18.1837 3.59587 18.276C3.94874 18.37 4.63315 18.4529 5.52396 18.5179C6.39554 18.5815 7.40477 18.6242 8.3673 18.6528C9.32863 18.6814 10.2374 18.6957 10.9062 18.7029C11.2404 18.7064 11.5144 18.7082 11.7046 18.7091C11.7996 18.7096 11.8738 18.7098 11.924 18.7099L12 18.71L12 19.46C12 20.21 12 20.21 11.9999 20.21L11.9207 20.2099C11.8693 20.2098 11.7939 20.2095 11.6975 20.2091C11.5047 20.2082 11.2278 20.2064 10.8901 20.2028C10.2152 20.1955 9.29642 20.1811 8.32275 20.1522C7.35028 20.1233 6.31701 20.0798 5.41484 20.014C4.53364 19.9497 3.71399 19.8603 3.20625 19.7245L3.20208 19.7234C2.61649 19.5632 2.08211 19.2546 1.65059 18.8275C1.21907 18.4005 0.904993 17.8693 0.738703 17.2854C0.731924 17.2616 0.726327 17.2375 0.721934 17.2131C0.396746 15.4103 0.238768 13.5814 0.250011 11.7495C0.241284 9.93135 0.39925 8.11622 0.721928 6.3269C0.724894 6.31045 0.728409 6.29411 0.732466 6.27789C0.883302 5.67527 1.1905 5.12312 1.62303 4.67721C2.05555 4.23131 2.59809 3.90744 3.19585 3.73833L3.20623 3.73539C3.71397 3.5996 4.53364 3.51032 5.41484 3.44605C6.31701 3.38025 7.35028 3.33673 8.32275 3.30783C9.29642 3.2789 10.2152 3.26445 10.8901 3.25723C11.2278 3.25362 11.5047 3.25181 11.6975 3.25091C11.7939 3.25045 11.8693 3.25023 11.9207 3.25011L11.9999 3.25ZM20.401 18.2769C20.0472 18.3705 19.3642 18.4531 18.4761 18.5179C17.6045 18.5815 16.5953 18.6242 15.6327 18.6528C14.6714 18.6814 13.7627 18.6957 13.0939 18.7029C12.7596 18.7064 12.4857 18.7082 12.2955 18.7091C12.2004 18.7096 12.1263 18.7098 12.076 18.7099L12 18.71L12 19.46C12 20.21 12 20.21 11.9999 20.21L12.0794 20.2099C12.1308 20.2098 12.2061 20.2095 12.3025 20.2091C12.4953 20.2082 12.7723 20.2064 13.1099 20.2028C13.7849 20.1955 14.7036 20.1811 15.6773 20.1522C16.6498 20.1233 17.683 20.0798 18.5852 20.014C19.4664 19.9497 20.2861 19.8603 20.7938 19.7245L20.8042 19.7217C21.402 19.5526 21.9445 19.2287 22.377 18.7828C22.8095 18.3369 23.1167 17.7847 23.2676 17.1821C23.2716 17.1659 23.2752 17.1495 23.2781 17.1331C23.5983 15.3571 23.7563 13.5557 23.75 11.751C23.7613 9.91901 23.6033 8.08985 23.2781 6.28686C23.2751 6.27043 23.2716 6.2541 23.2676 6.23789C23.1167 5.63527 22.8095 5.08312 22.377 4.63721C21.9445 4.19131 21.402 3.86744 20.8042 3.69833C20.7955 3.69586 20.7867 3.69356 20.7779 3.69141C20.2761 3.56888 19.4619 3.48755 18.5805 3.42885C17.6796 3.36885 16.6474 3.32915 15.6754 3.30278C14.7022 3.27637 13.7839 3.26319 13.1092 3.2566C12.7717 3.2533 12.4949 3.25165 12.3022 3.25083C12.2059 3.25041 12.1306 3.25021 12.0792 3.2501L11.9999 3.25C12 3.25 12 3.25 12 4L12 4.75L12.0762 4.7501L12.2958 4.75081C12.4861 4.75163 12.7602 4.75326 13.0946 4.75653C13.7636 4.76306 14.6728 4.77613 15.6347 4.80222C16.5976 4.82835 17.6079 4.8674 18.4808 4.92553C19.3622 4.98423 20.047 5.05926 20.4088 5.14538C20.7474 5.24362 21.0547 5.4284 21.3003 5.6816C21.5437 5.93246 21.718 6.2418 21.8067 6.57958C22.1125 8.28423 22.2609 10.0134 22.25 11.7453L22.25 11.7527C22.2562 13.4585 22.1078 15.1614 21.8067 16.8404C21.718 17.1782 21.5437 17.4875 21.3003 17.7384C21.0528 17.9935 20.7427 18.1792 20.401 18.2769Z" fill="#212121"/>
<path fill-rule="evenodd" clip-rule="evenodd" d="M9.37289 7.83217C9.60374 7.69788 9.8886 7.69649 10.1208 7.82852L15.8708 11.0985C16.1052 11.2318 16.25 11.4808 16.25 11.7505C16.25 12.0202 16.1052 12.2691 15.8708 12.4024L10.1208 15.6724C9.8886 15.8044 9.60374 15.8031 9.37289 15.6688C9.14203 15.5345 9 15.2875 9 15.0205V8.48047C9 8.21339 9.14203 7.96647 9.37289 7.83217ZM10.5 9.76979V13.7311L13.9828 11.7505L10.5 9.76979Z" fill="#212121"/>
</svg>
