<svg width="65" height="65" viewBox="0 0 65 65" fill="none" xmlns="http://www.w3.org/2000/svg">
<path d="M65.0005 64.9011L51.8048 61.7583L45.6832 50.1681H57.0594L65.0005 64.9011Z" fill="url(#paint0_linear_395_1043)"/>
<path d="M63.2373 63.5428C63.055 63.5428 62.8765 63.4431 62.7854 63.2691L56.9896 52.2536H53.7348L57.748 59.753C57.8819 60.0032 57.7887 60.3159 57.5405 60.4507C57.2922 60.5856 56.9818 60.4918 56.848 60.2416L52.0221 51.2235H57.6045L63.6892 62.7864C63.8211 63.0385 63.7261 63.3493 63.4778 63.4822C63.4002 63.5232 63.3188 63.5428 63.2373 63.5428Z" fill="#22CCBD"/>
<path d="M50.1464 57.9588C49.964 57.9588 49.7875 57.861 49.6964 57.689L46.5871 51.89C46.4532 51.6399 46.5463 51.3271 46.7946 51.1923C47.0429 51.0574 47.3532 51.1512 47.4871 51.4014L50.5964 57.2004C50.7302 57.4506 50.6371 57.7633 50.3888 57.8982C50.3132 57.9392 50.2298 57.9588 50.1464 57.9588Z" fill="#22CCBD"/>
<path d="M3.1287 52.2164L24.9753 10.7537L46.7598 52.2164H52.5477L25.0819 0L0 47.5667L3.1287 52.2164Z" fill="#69B8A7"/>
<path d="M3.1287 52.2164L24.9753 10.7537L46.7598 52.2164H52.5477L25.0819 0L0 47.5667L3.1287 52.2164Z" fill="url(#paint1_linear_395_1043)"/>
<path d="M45.1828 52.2164H3.12866L24.9752 10.7537L28.005 16.4999L11.6768 47.5667H42.7543L45.1828 52.2164Z" fill="#30EADA"/>
<path d="M14.1209 42.9169L11.6769 47.5667H42.7544L40.3899 42.9169H14.1209Z" fill="#22CCBD"/>
<path d="M58.1514 52.2164L30.6468 0H25.0819L52.5477 52.2164H58.1514Z" fill="#30EADA"/>
<path d="M25.1459 30.4003V37.2938C25.1459 38.275 24.9132 39.006 24.4477 39.4868C23.9821 39.9676 23.216 40.208 22.1472 40.208C21.6797 40.208 21.1735 40.1591 20.6304 40.0594V38.1831C21.0746 38.2593 21.4567 38.2965 21.7748 38.2965C22.056 38.2965 22.2772 38.2457 22.4381 38.144C22.5991 38.0424 22.7175 37.9193 22.7931 37.7727C22.8688 37.6261 22.9056 37.372 22.9056 37.0085V30.3983H25.1459V30.4003Z" fill="white"/>
<path d="M22.1472 40.4034C21.6701 40.4034 21.1483 40.3526 20.5955 40.251L20.4384 40.2217V37.9564L20.6614 37.9935C21.094 38.0678 21.4683 38.1049 21.7748 38.1049C22.0173 38.1049 22.2073 38.0639 22.3373 37.9818C22.4692 37.8978 22.5642 37.802 22.6224 37.6847C22.6632 37.6046 22.7136 37.4209 22.7136 37.0085V30.2048H25.338V37.2919C25.338 38.3199 25.0839 39.1037 24.5854 39.6216C24.083 40.1396 23.2645 40.4034 22.1472 40.4034ZM20.8224 39.8992C21.2938 39.9773 21.7399 40.0164 22.1472 40.0164C23.1558 40.0164 23.8832 39.7936 24.3099 39.3519C24.7367 38.9102 24.9539 38.2183 24.9539 37.2938V30.5938H23.0977V37.0104C23.0977 37.4091 23.053 37.6867 22.9638 37.8626C22.8726 38.0404 22.7311 38.1909 22.541 38.3102C22.3489 38.4313 22.091 38.4919 21.7767 38.4919C21.5052 38.4919 21.1851 38.4646 20.8244 38.4118V39.8992H20.8224Z" fill="#6AB8A7"/>
<path d="M27.8615 40.0614C27.2621 40.0614 26.7772 39.5728 26.7772 38.9688C26.7772 38.3649 27.2621 37.8763 27.8615 37.8763C28.4609 37.8763 28.9458 38.3649 28.9458 38.9688C28.9458 39.5708 28.4609 40.0614 27.8615 40.0614Z" fill="white"/>
<path d="M27.8615 40.2549C27.1574 40.2549 26.5852 39.6783 26.5852 38.9688C26.5852 38.2593 27.1574 37.6828 27.8615 37.6828C28.5656 37.6828 29.1378 38.2593 29.1378 38.9688C29.1378 39.6783 28.5656 40.2549 27.8615 40.2549ZM27.8615 38.0678C27.3688 38.0678 26.9673 38.4724 26.9673 38.9688C26.9673 39.4653 27.3688 39.8698 27.8615 39.8698C28.3542 39.8698 28.7557 39.4653 28.7557 38.9688C28.7538 38.4704 28.3542 38.0678 27.8615 38.0678Z" fill="#6AB8A7"/>
<path d="M31.2928 25.0977V31.9913C31.2928 32.9724 31.06 33.7034 30.5945 34.1842C30.129 34.665 29.3628 34.9054 28.294 34.9054C27.8266 34.9054 27.3203 34.8566 26.7772 34.7569V32.8806C27.2214 32.9568 27.6035 32.9939 27.9216 32.9939C28.2029 32.9939 28.424 32.9431 28.585 32.8415C28.746 32.7398 28.8643 32.6167 28.94 32.4701C29.0156 32.3235 29.0525 32.0694 29.0525 31.7059V25.0958H31.2928V25.0977Z" fill="white"/>
<path d="M28.2941 35.0989C27.8169 35.0989 27.2951 35.0481 26.7423 34.9465L26.5852 34.9171V32.6538L26.8083 32.691C27.2408 32.7652 27.6152 32.8024 27.9216 32.8024C28.1641 32.8024 28.3542 32.7613 28.4841 32.6792C28.616 32.5971 28.7111 32.4975 28.7693 32.3822C28.81 32.302 28.8604 32.1183 28.8604 31.7059V24.9023H31.4848V31.9893C31.4848 33.0174 31.2307 33.8011 30.7322 34.3191C30.2299 34.837 29.4094 35.0989 28.2941 35.0989ZM26.9673 34.5946C27.4387 34.6728 27.8829 34.7119 28.2921 34.7119C29.3008 34.7119 30.0281 34.4891 30.4549 34.0474C30.8816 33.6057 31.0988 32.9138 31.0988 31.9893V25.2893H29.2426V31.7059C29.2426 32.1046 29.1979 32.3822 29.1087 32.5581C29.0176 32.7359 28.876 32.8864 28.6839 33.0056C28.4919 33.1268 28.2359 33.1874 27.9197 33.1874C27.6462 33.1874 27.3281 33.16 26.9673 33.1073V34.5946Z" fill="#6AB8A7"/>
<path d="M34.0064 34.7588C33.407 34.7588 32.9221 34.2702 32.9221 33.6662C32.9221 33.0623 33.407 32.5737 34.0064 32.5737C34.6058 32.5737 35.0907 33.0623 35.0907 33.6662C35.0926 34.2682 34.6058 34.7588 34.0064 34.7588Z" fill="white"/>
<path d="M34.0064 34.9504C33.3023 34.9504 32.7301 34.3738 32.7301 33.6643C32.7301 32.9548 33.3023 32.3782 34.0064 32.3782C34.7105 32.3782 35.2827 32.9548 35.2827 33.6643C35.2827 34.3738 34.7105 34.9504 34.0064 34.9504ZM34.0064 32.7633C33.5137 32.7633 33.1122 33.1679 33.1122 33.6643C33.1122 34.1607 33.5137 34.5653 34.0064 34.5653C34.4991 34.5653 34.9006 34.1607 34.9006 33.6643C34.9006 33.1679 34.4991 32.7633 34.0064 32.7633Z" fill="#6AB8A7"/>
<path d="M10.9534 31.3326L10.5111 32.2356C10.4684 32.2063 10.4335 32.1867 10.4102 32.173C10.2609 32.0909 10.1077 32.0714 9.95054 32.1124C9.79342 32.1535 9.66153 32.2747 9.55484 32.4721C9.38027 32.7965 9.40355 33.1131 9.62855 33.4161C9.85161 33.721 10.1077 33.9497 10.3947 34.108C10.6081 34.2233 10.7943 34.2487 10.9572 34.1842C11.1182 34.1178 11.2501 33.9927 11.351 33.805C11.5547 33.4239 11.5139 33.0643 11.2249 32.7222L11.7603 31.9834C12.2762 32.646 12.3189 33.3809 11.8863 34.1842C11.6187 34.6826 11.2889 34.9934 10.8971 35.1185C10.5053 35.2435 10.1309 35.2103 9.77597 35.0168C9.30269 34.7588 8.97876 34.3601 8.80225 33.8207C8.62574 33.2812 8.69169 32.7301 8.99622 32.1613C9.21734 31.7509 9.49666 31.4596 9.8361 31.2876C10.1697 31.1176 10.5441 31.1313 10.9534 31.3326Z" fill="white"/>
<path d="M14.5767 29.04L14.0821 29.9625L13.3625 29.7319L12.6642 31.0316L13.1161 31.7606L12.6661 32.5991L10.6915 29.1357L11.2599 28.0764L14.5767 29.04ZM12.3053 30.4511L12.7922 29.5462L11.4849 29.126L12.3053 30.4511Z" fill="white"/>
<path d="M14.4371 22.1621L17.0556 24.4273L16.5688 25.3342L14.3789 23.4384L16.0179 26.3584L15.7405 26.8744L12.9532 26.0261L15.1664 27.9415L14.7746 28.6725L12.156 26.4073L12.8853 25.0508L14.8851 25.6958L13.6806 23.5693L14.4371 22.1621Z" fill="white"/>
<path d="M16.9663 21.9158L17.9478 22.766L17.4687 23.6573L14.8501 21.392L15.5949 20.0082C15.7579 19.7033 15.9111 19.4707 16.0527 19.3124C16.1943 19.1522 16.3708 19.0447 16.5822 18.988C16.7937 18.9313 17.0012 18.9587 17.2029 19.0681C17.3542 19.1502 17.4803 19.2733 17.585 19.4356C17.6898 19.5997 17.7422 19.7795 17.7441 19.977C17.746 20.1744 17.7247 20.3444 17.682 20.4871C17.6374 20.6298 17.5462 20.8311 17.4066 21.093L16.9663 21.9158ZM15.7967 20.9034L16.5085 21.5191L16.8674 20.8526C16.9896 20.6239 17.0381 20.4343 17.0128 20.2819C16.9857 20.1314 16.912 20.0219 16.7917 19.9555C16.6986 19.9046 16.59 19.9007 16.4658 19.9437C16.3417 19.9867 16.2021 20.1529 16.0469 20.4421L15.7967 20.9034Z" fill="white"/>
<path d="M19.9922 49.1088L19.0961 49.271C18.9933 48.9895 18.745 48.8488 18.3493 48.8488C18.165 48.8488 18.0196 48.882 17.9129 48.9505C17.8043 49.0189 17.7519 49.101 17.7519 49.1967C17.7519 49.2925 17.7965 49.3668 17.8838 49.4156C17.9711 49.4645 18.1379 49.5134 18.3862 49.5622C18.7431 49.6326 19.0243 49.7049 19.228 49.7831C19.4336 49.8593 19.5907 49.9687 19.7013 50.1056C19.8118 50.2443 19.8661 50.4124 19.8661 50.6118C19.8661 50.9323 19.7148 51.2001 19.4122 51.4151C19.1097 51.6301 18.6771 51.7376 18.1185 51.7376C17.6394 51.7376 17.2437 51.6516 16.9256 51.4796C16.6094 51.3076 16.4116 51.0496 16.334 50.7036L17.2689 50.604C17.3659 50.9401 17.6607 51.1102 18.1553 51.1102C18.3803 51.1102 18.551 51.073 18.6713 50.9988C18.7915 50.9245 18.8497 50.8307 18.8497 50.7154C18.8497 50.6059 18.8051 50.5277 18.714 50.4789C18.6228 50.43 18.4133 50.3714 18.0816 50.301C17.781 50.2404 17.5405 50.172 17.362 50.0977C17.1836 50.0235 17.042 49.9179 16.9353 49.7811C16.8305 49.6443 16.7762 49.4879 16.7762 49.312C16.7762 49.0247 16.9159 48.7726 17.1952 48.5537C17.4745 48.3348 17.8605 48.2253 18.3512 48.2253C19.1969 48.2195 19.7439 48.5166 19.9922 49.1088Z" fill="white"/>
<path d="M24.1916 49.5524L23.1926 49.5896C23.1965 49.5388 23.1984 49.4977 23.1984 49.4704C23.1984 49.2984 23.1422 49.1537 23.0316 49.0345C22.9211 48.9153 22.7523 48.8566 22.5293 48.8566C22.1627 48.8566 21.8989 49.0286 21.7398 49.3707C21.5808 49.7127 21.5012 50.0489 21.5012 50.3772C21.5012 50.6216 21.5691 50.7994 21.703 50.9108C21.8368 51.0222 22.0094 51.0789 22.2209 51.0789C22.6495 51.0789 22.9443 50.8698 23.1053 50.4515L24.0054 50.5727C23.6717 51.3467 23.053 51.7337 22.1452 51.7337C21.5846 51.7337 21.154 51.589 20.8573 51.3017C20.5605 51.0144 20.4111 50.6665 20.4111 50.26C20.4111 49.7166 20.6032 49.2397 20.9911 48.8273C21.3771 48.4149 21.8911 48.2097 22.5312 48.2077C22.9948 48.2077 23.3827 48.3172 23.6931 48.5341C24.0073 48.757 24.1722 49.0951 24.1916 49.5524Z" fill="white"/>
<path d="M28.4279 48.2722L27.6985 51.6711H26.7345L27.041 50.2502H25.6289L25.3224 51.6711H24.3623L25.0916 48.2722H26.0556L25.7686 49.6052H27.1807L27.4677 48.2722H28.4279Z" fill="white"/>
<path d="M30.4335 51.7219C29.9176 51.7219 29.5005 51.5871 29.1863 51.3174C28.8721 51.0476 28.713 50.69 28.713 50.2443C28.713 49.7068 28.8992 49.2339 29.2736 48.8273C29.6479 48.4208 30.1426 48.2175 30.7613 48.2175C31.2928 48.2175 31.7156 48.3543 32.0279 48.628C32.3402 48.9016 32.4973 49.2651 32.4973 49.7166C32.4973 50.2619 32.3111 50.733 31.9406 51.1297C31.5702 51.5245 31.0678 51.7219 30.4335 51.7219ZM30.449 51.0945C30.8253 51.0945 31.093 50.9265 31.2559 50.5903C31.4189 50.2541 31.4984 49.9257 31.4984 49.6033C31.4984 49.097 31.254 48.843 30.7652 48.843C30.418 48.843 30.1561 49.0013 29.9816 49.3159C29.807 49.6326 29.7197 49.9785 29.7197 50.3557C29.7197 50.8502 29.9622 51.0945 30.449 51.0945Z" fill="white"/>
<path d="M34.6542 51.7219C34.1383 51.7219 33.7212 51.5871 33.407 51.3174C33.0928 51.0476 32.9337 50.69 32.9337 50.2443C32.9337 49.7068 33.1199 49.2339 33.4943 48.8273C33.8686 48.4208 34.3633 48.2175 34.982 48.2175C35.5135 48.2175 35.9363 48.3543 36.2486 48.628C36.5609 48.9016 36.718 49.2651 36.718 49.7166C36.718 50.2619 36.5318 50.733 36.1613 51.1297C35.7909 51.5226 35.2865 51.7219 34.6542 51.7219ZM34.6697 51.0945C35.046 51.0945 35.3137 50.9265 35.4766 50.5903C35.6396 50.2541 35.7191 49.9257 35.7191 49.6033C35.7191 49.097 35.4747 48.843 34.9859 48.843C34.6387 48.843 34.3768 49.0013 34.2023 49.3159C34.0277 49.6326 33.9404 49.9785 33.9404 50.3557C33.9385 50.8483 34.1829 51.0945 34.6697 51.0945Z" fill="white"/>
<path d="M38.7449 48.2683L38.1553 51.0222H39.8758L39.7381 51.6672H37.0128L37.7421 48.2683H38.7449Z" fill="white"/>
<path d="M40.7545 23.7237L40.2522 22.854C40.2987 22.8344 40.3356 22.8168 40.3608 22.8032C40.5101 22.723 40.613 22.6038 40.6634 22.4494C40.7158 22.295 40.6886 22.1171 40.5839 21.9178C40.4112 21.5914 40.1377 21.4389 39.7614 21.4585C39.3871 21.478 39.0554 21.566 38.7664 21.7204C38.553 21.8357 38.4289 21.9784 38.394 22.1504C38.359 22.3224 38.392 22.5022 38.4909 22.6898C38.6927 23.0709 39.0147 23.2351 39.4569 23.1804L39.7731 24.0384C38.939 24.1068 38.3086 23.7374 37.8819 22.9302C37.6181 22.4318 37.5424 21.9823 37.6549 21.5835C37.7674 21.1848 38.0021 20.8897 38.3571 20.6982C38.8323 20.4421 39.3405 20.3893 39.8836 20.5398C40.4267 20.6884 40.8476 21.048 41.1502 21.6187C41.3675 22.0311 41.4548 22.4259 41.4102 22.8071C41.3636 23.1843 41.1464 23.4892 40.7545 23.7237Z" fill="white"/>
<path d="M42.7698 24.8124L40.0795 25.5825L40.8903 27.1128L40.2599 27.2946L38.9778 24.871L42.2966 23.9211L42.7698 24.8124Z" fill="white"/>
<path d="M45.3748 29.7319L43.5224 30.2635C43.1617 30.3651 42.9114 30.4218 42.7737 30.4374C42.636 30.4511 42.4808 30.4277 42.3082 30.3651C42.1356 30.3026 41.961 30.1794 41.7826 29.9996C41.606 29.8198 41.4373 29.5814 41.2821 29.2862C41.0319 28.8132 40.9213 28.4126 40.9524 28.0823C40.9834 27.7519 41.125 27.5194 41.3791 27.3845C41.4664 27.3376 41.5711 27.2965 41.6933 27.2594L43.7533 26.6711L44.2595 27.6269L42.3218 28.1839C42.186 28.223 42.0716 28.2679 41.9804 28.3168C41.8388 28.393 41.7748 28.5103 41.7864 28.6686C41.7981 28.8269 41.8446 28.9833 41.928 29.1396C42.0231 29.3175 42.1259 29.4485 42.2403 29.5305C42.3528 29.6126 42.4556 29.6478 42.5429 29.638C42.6321 29.6283 42.8513 29.5735 43.2024 29.4719L44.9694 28.9676L45.3748 29.7319Z" fill="white"/>
<path d="M45.7511 30.4453L46.6376 32.1183C46.8141 32.4525 46.9149 32.7183 46.9402 32.9177C46.9654 33.1171 46.9421 33.289 46.8723 33.4356C46.8024 33.5822 46.6977 33.6936 46.558 33.7699C46.1779 33.9731 45.7899 33.8089 45.3904 33.2734C45.5397 33.8011 45.4466 34.1529 45.1169 34.3308C44.8783 34.4598 44.6145 34.4598 44.3235 34.3367C44.0345 34.2116 43.7436 33.8754 43.4526 33.3242L42.4304 31.3951L45.7511 30.4453ZM44.3313 31.8818L43.4992 32.1203L43.9162 32.9079C44.0365 33.1346 44.1606 33.2812 44.2925 33.3535C44.4244 33.4259 44.5427 33.4317 44.6494 33.3731C44.7794 33.3027 44.8434 33.1991 44.8434 33.0604C44.8434 32.9216 44.7774 32.7262 44.6436 32.474L44.3313 31.8818ZM45.6677 31.4987L44.8938 31.7196L45.2177 32.3313C45.3283 32.5405 45.4136 32.6812 45.4718 32.7535C45.532 32.8258 45.6057 32.8786 45.693 32.9079C45.7822 32.9392 45.8733 32.9275 45.9684 32.8766C46.1914 32.7574 46.1992 32.5014 45.9917 32.1105L45.6677 31.4987Z" fill="white"/>
<defs>
<linearGradient id="paint0_linear_395_1043" x1="54.6561" y1="61.1395" x2="55.8983" y2="54.7114" gradientUnits="userSpaceOnUse">
<stop stop-color="#30EADA" stop-opacity="0"/>
<stop offset="1" stop-color="#30EADA"/>
</linearGradient>
<linearGradient id="paint1_linear_395_1043" x1="27.464" y1="52.7587" x2="30.4431" y2="59.8286" gradientUnits="userSpaceOnUse">
<stop stop-color="#30EADA" stop-opacity="0"/>
<stop offset="1" stop-color="#30EADA"/>
</linearGradient>
</defs>
</svg>
