<svg width="69" height="69" viewBox="0 0 69 69" fill="none" xmlns="http://www.w3.org/2000/svg">
<path d="M60.375 28.75C60.375 48.875 34.5 66.125 34.5 66.125C34.5 66.125 8.625 48.875 8.625 28.75C8.625 21.8875 11.3511 15.3061 16.2036 10.4536C21.0561 5.60111 27.6375 2.875 34.5 2.875C41.3625 2.875 47.9439 5.60111 52.7964 10.4536C57.6489 15.3061 60.375 21.8875 60.375 28.75Z" stroke="#30EADA" stroke-width="4" stroke-linecap="round" stroke-linejoin="round"/>
<path d="M34.5 37.375C39.2635 37.375 43.125 33.5135 43.125 28.75C43.125 23.9865 39.2635 20.125 34.5 20.125C29.7365 20.125 25.875 23.9865 25.875 28.75C25.875 33.5135 29.7365 37.375 34.5 37.375Z" stroke="#30EADA" stroke-width="4" stroke-linecap="round" stroke-linejoin="round"/>
</svg>
